<mxfile host="65bd71144e">
    <diagram id="OkUrZmz7QlPJtFkX1Ahq" name="Page-1">
        <mxGraphModel dx="833" dy="750" grid="1" gridSize="10" guides="1" tooltips="1" connect="1" arrows="1" fold="1" page="1" pageScale="1" pageWidth="850" pageHeight="1100" background="#FFFFFF" math="0" shadow="0">
            <root>
                <mxCell id="0"/>
                <mxCell id="1" parent="0"/>
                <mxCell id="2" value="&lt;h1&gt;Sequence Generator Software Architecture&lt;/h1&gt;" style="text;html=1;strokeColor=none;fillColor=none;align=center;verticalAlign=middle;whiteSpace=wrap;rounded=0;" parent="1" vertex="1">
                    <mxGeometry x="165" y="40" width="510" height="20" as="geometry"/>
                </mxCell>
                <mxCell id="3" value="&amp;nbsp; Main Application&lt;br&gt;&lt;br&gt;&lt;br&gt;&lt;br&gt;&lt;br&gt;&lt;br&gt;&lt;br&gt;&lt;br&gt;&lt;br&gt;&lt;br&gt;&lt;br&gt;&lt;br&gt;&lt;br&gt;&lt;br&gt;&lt;br&gt;&lt;br&gt;&lt;br&gt;&lt;br&gt;&lt;br&gt;&lt;br&gt;&lt;br&gt;&lt;br&gt;&lt;br&gt;&lt;br&gt;&lt;br&gt;&lt;br&gt;&lt;br&gt;&lt;br&gt;" style="shape=folder;fontStyle=1;spacingTop=10;tabWidth=40;tabHeight=14;tabPosition=left;html=1;align=left;fillColor=#FFFFCC;strokeColor=#d6b656;" parent="1" vertex="1">
                    <mxGeometry x="160" y="80" width="500" height="420" as="geometry"/>
                </mxCell>
                <mxCell id="4" style="edgeStyle=orthogonalEdgeStyle;rounded=0;orthogonalLoop=1;jettySize=auto;html=1;endSize=12;startSize=12;startArrow=diamond;startFill=0;endArrow=none;endFill=0;" parent="1" source="7" edge="1">
                    <mxGeometry relative="1" as="geometry">
                        <mxPoint x="425" y="195" as="targetPoint"/>
                        <Array as="points">
                            <mxPoint x="425" y="195"/>
                            <mxPoint x="425" y="195"/>
                        </Array>
                    </mxGeometry>
                </mxCell>
                <mxCell id="5" style="edgeStyle=orthogonalEdgeStyle;rounded=0;orthogonalLoop=1;jettySize=auto;html=1;startArrow=diamond;startFill=0;startSize=12;endArrow=none;endFill=0;endSize=12;entryX=1;entryY=0.25;entryDx=0;entryDy=0;exitX=0.267;exitY=1.025;exitDx=0;exitDy=0;exitPerimeter=0;" parent="1" source="7" target="11" edge="1">
                    <mxGeometry relative="1" as="geometry">
                        <mxPoint x="295" y="175" as="sourcePoint"/>
                        <Array as="points">
                            <mxPoint x="299" y="280"/>
                        </Array>
                    </mxGeometry>
                </mxCell>
                <mxCell id="6" style="edgeStyle=orthogonalEdgeStyle;rounded=0;orthogonalLoop=1;jettySize=auto;html=1;entryX=1;entryY=0.25;entryDx=0;entryDy=0;startArrow=diamond;startFill=0;startSize=12;endArrow=none;endFill=0;endSize=12;exitX=0.323;exitY=0.975;exitDx=0;exitDy=0;exitPerimeter=0;" parent="1" source="7" target="12" edge="1">
                    <mxGeometry relative="1" as="geometry">
                        <mxPoint x="188" y="165" as="sourcePoint"/>
                    </mxGeometry>
                </mxCell>
                <mxCell id="7" value="&lt;p style=&quot;margin: 0px ; margin-top: 6px ; text-align: center&quot;&gt;&lt;b&gt;Master Task&lt;/b&gt;&lt;/p&gt;" style="align=left;overflow=fill;html=1;fillColor=#ffe6cc;strokeColor=#d79b00;" parent="1" vertex="1">
                    <mxGeometry x="175" y="125" width="465" height="40" as="geometry"/>
                </mxCell>
                <mxCell id="8" value="" style="shape=component;jettyWidth=8;jettyHeight=4;" parent="7" vertex="1">
                    <mxGeometry x="1" width="20" height="20" relative="1" as="geometry">
                        <mxPoint x="-24" y="4" as="offset"/>
                    </mxGeometry>
                </mxCell>
                <mxCell id="9" style="edgeStyle=orthogonalEdgeStyle;rounded=0;orthogonalLoop=1;jettySize=auto;html=1;entryX=0.2;entryY=1.013;entryDx=0;entryDy=0;entryPerimeter=0;startArrow=none;startFill=0;startSize=12;endArrow=diamond;endFill=0;endSize=12;exitX=0.75;exitY=0;exitDx=0;exitDy=0;" parent="1" source="10" target="7" edge="1">
                    <mxGeometry relative="1" as="geometry"/>
                </mxCell>
                <mxCell id="10" value="&lt;p style=&quot;margin: 0px ; margin-top: 4px ; text-align: center&quot;&gt;&lt;b&gt;SensorAHandler&lt;br&gt;: AppTask&lt;/b&gt;&lt;/p&gt;&lt;hr size=&quot;1&quot;&gt;&lt;div style=&quot;height: 2px&quot;&gt;&lt;/div&gt;" style="verticalAlign=top;align=left;overflow=fill;fontSize=12;fontFamily=Helvetica;html=1;fillColor=#CCCCFF;" parent="1" vertex="1">
                    <mxGeometry x="175" y="195" width="110" height="60" as="geometry"/>
                </mxCell>
                <mxCell id="11" value="&lt;p style=&quot;margin: 0px ; margin-top: 4px ; text-align: center&quot;&gt;&lt;b&gt;SensorBHandler&lt;br&gt;: AppTask&lt;/b&gt;&lt;/p&gt;&lt;hr size=&quot;1&quot;&gt;&lt;div style=&quot;height: 2px&quot;&gt;&lt;/div&gt;" style="verticalAlign=top;align=left;overflow=fill;fontSize=12;fontFamily=Helvetica;html=1;fillColor=#CCCCFF;" parent="1" vertex="1">
                    <mxGeometry x="175" y="265" width="110" height="60" as="geometry"/>
                </mxCell>
                <mxCell id="12" value="&lt;p style=&quot;margin: 0px ; margin-top: 4px ; text-align: center&quot;&gt;&lt;b&gt;SensorCHandler&lt;br&gt;: AppTask&lt;/b&gt;&lt;/p&gt;&lt;hr size=&quot;1&quot;&gt;&lt;div style=&quot;height: 2px&quot;&gt;&lt;/div&gt;" style="verticalAlign=top;align=left;overflow=fill;fontSize=12;fontFamily=Helvetica;html=1;fillColor=#CCCCFF;" parent="1" vertex="1">
                    <mxGeometry x="175" y="335" width="110" height="60" as="geometry"/>
                </mxCell>
                <mxCell id="13" style="edgeStyle=orthogonalEdgeStyle;rounded=0;orthogonalLoop=1;jettySize=auto;html=1;entryX=0.5;entryY=0;entryDx=0;entryDy=0;dashed=1;startArrow=none;startFill=0;startSize=12;endArrow=none;endFill=0;endSize=12;fontSize=10;exitX=0.75;exitY=1;exitDx=0;exitDy=0;" parent="1" source="14" target="34" edge="1">
                    <mxGeometry relative="1" as="geometry"/>
                </mxCell>
                <mxCell id="14" value="&lt;p style=&quot;margin: 0px ; margin-top: 6px ; text-align: center&quot;&gt;&lt;b&gt;CLI&lt;/b&gt;&lt;/p&gt;&lt;hr&gt;&lt;p style=&quot;margin: 0px ; margin-left: 8px&quot;&gt;&lt;br&gt;&lt;/p&gt;" style="align=left;overflow=fill;html=1;fillColor=#f5f5f5;strokeColor=#666666;fontColor=#333333;" parent="1" vertex="1">
                    <mxGeometry x="360" y="410" width="120" height="60" as="geometry"/>
                </mxCell>
                <mxCell id="15" value="" style="shape=component;jettyWidth=8;jettyHeight=4;" parent="14" vertex="1">
                    <mxGeometry x="1" width="20" height="20" relative="1" as="geometry">
                        <mxPoint x="-25" y="4" as="offset"/>
                    </mxGeometry>
                </mxCell>
                <mxCell id="16" style="edgeStyle=orthogonalEdgeStyle;rounded=0;orthogonalLoop=1;jettySize=auto;html=1;dashed=1;startArrow=none;startFill=0;startSize=12;endArrow=none;endFill=0;endSize=12;fontSize=10;" parent="1" source="17" target="33" edge="1">
                    <mxGeometry relative="1" as="geometry"/>
                </mxCell>
                <mxCell id="17" value="&lt;p style=&quot;margin: 0px ; margin-top: 6px ; text-align: center&quot;&gt;&lt;b&gt;SystemLogger&lt;/b&gt;&lt;/p&gt;&lt;hr&gt;&lt;p style=&quot;margin: 0px ; margin-left: 8px&quot;&gt;&lt;br&gt;&lt;/p&gt;" style="align=left;overflow=fill;html=1;fillColor=#dae8fc;strokeColor=#6c8ebf;" parent="1" vertex="1">
                    <mxGeometry x="175" y="410" width="140" height="65" as="geometry"/>
                </mxCell>
                <mxCell id="18" value="" style="shape=component;jettyWidth=8;jettyHeight=4;" parent="17" vertex="1">
                    <mxGeometry x="1" width="20" height="20" relative="1" as="geometry">
                        <mxPoint x="-24" y="4" as="offset"/>
                    </mxGeometry>
                </mxCell>
                <mxCell id="19" style="edgeStyle=orthogonalEdgeStyle;rounded=0;orthogonalLoop=1;jettySize=auto;html=1;startArrow=none;startFill=0;startSize=12;endArrow=diamond;endFill=0;endSize=12;exitX=0.5;exitY=0;exitDx=0;exitDy=0;entryX=0.845;entryY=1.05;entryDx=0;entryDy=0;entryPerimeter=0;" parent="1" source="20" target="7" edge="1">
                    <mxGeometry relative="1" as="geometry">
                        <mxPoint x="530" y="166" as="targetPoint"/>
                        <Array as="points">
                            <mxPoint x="575" y="167"/>
                        </Array>
                    </mxGeometry>
                </mxCell>
                <mxCell id="20" value="&lt;p style=&quot;margin: 0px ; margin-top: 4px ; text-align: center&quot;&gt;&lt;b&gt;UIHandler&lt;br&gt;: AppTask&lt;/b&gt;&lt;/p&gt;&lt;hr size=&quot;1&quot;&gt;&lt;div style=&quot;height: 2px&quot;&gt;&lt;/div&gt;" style="verticalAlign=top;align=left;overflow=fill;fontSize=12;fontFamily=Helvetica;html=1;fillColor=#b1ddf0;strokeColor=#10739e;" parent="1" vertex="1">
                    <mxGeometry x="520" y="195" width="110" height="60" as="geometry"/>
                </mxCell>
                <mxCell id="21" value="DataStore" style="swimlane;fontStyle=1;childLayout=stackLayout;horizontal=1;startSize=26;fillColor=#fad9d5;horizontalStack=0;resizeParent=1;resizeParentMax=0;resizeLast=0;collapsible=1;marginBottom=0;strokeColor=#ae4132;swimlaneLine=1;glass=0;rounded=0;shadow=0;comic=0;" parent="1" vertex="1">
                    <mxGeometry x="340" y="195" width="160" height="104" as="geometry"/>
                </mxCell>
                <mxCell id="22" value="+ DataItem1 : DataItem&lt;Type1&gt;" style="text;strokeColor=#ae4132;fillColor=#fad9d5;align=left;verticalAlign=top;spacingLeft=4;spacingRight=4;overflow=hidden;rotatable=0;points=[[0,0.5],[1,0.5]];portConstraint=eastwest;fontSize=10;" parent="21" vertex="1">
                    <mxGeometry y="26" width="160" height="26" as="geometry"/>
                </mxCell>
                <mxCell id="23" value="+ DataItem2: DataItem&lt;Type2&gt;" style="text;strokeColor=#ae4132;fillColor=#fad9d5;align=left;verticalAlign=top;spacingLeft=4;spacingRight=4;overflow=hidden;rotatable=0;points=[[0,0.5],[1,0.5]];portConstraint=eastwest;fontSize=10;" parent="21" vertex="1">
                    <mxGeometry y="52" width="160" height="26" as="geometry"/>
                </mxCell>
                <mxCell id="24" value="... etc." style="text;strokeColor=#ae4132;fillColor=#fad9d5;align=left;verticalAlign=top;spacingLeft=4;spacingRight=4;overflow=hidden;rotatable=0;points=[[0,0.5],[1,0.5]];portConstraint=eastwest;fontSize=10;" parent="21" vertex="1">
                    <mxGeometry y="78" width="160" height="26" as="geometry"/>
                </mxCell>
                <mxCell id="25" style="edgeStyle=orthogonalEdgeStyle;rounded=0;orthogonalLoop=1;jettySize=auto;html=1;entryX=0;entryY=0.5;entryDx=0;entryDy=0;dashed=1;startArrow=none;startFill=0;startSize=12;endArrow=none;endFill=0;endSize=12;fontSize=10;" parent="1" source="26" target="12" edge="1">
                    <mxGeometry relative="1" as="geometry"/>
                </mxCell>
                <mxCell id="26" value="Sensor" style="shape=hexagon;perimeter=hexagonPerimeter2;whiteSpace=wrap;html=1;rounded=0;shadow=0;glass=0;comic=0;fillColor=#B1B1DE;fontSize=10;" parent="1" vertex="1">
                    <mxGeometry x="80" y="350" width="60" height="30" as="geometry"/>
                </mxCell>
                <mxCell id="27" style="edgeStyle=orthogonalEdgeStyle;rounded=0;orthogonalLoop=1;jettySize=auto;html=1;entryX=0;entryY=0.5;entryDx=0;entryDy=0;dashed=1;startArrow=none;startFill=0;startSize=12;endArrow=none;endFill=0;endSize=12;fontSize=10;" parent="1" source="28" target="11" edge="1">
                    <mxGeometry relative="1" as="geometry"/>
                </mxCell>
                <mxCell id="28" value="Sensor" style="shape=hexagon;perimeter=hexagonPerimeter2;whiteSpace=wrap;html=1;rounded=0;shadow=0;glass=0;comic=0;fillColor=#B1B1DE;fontSize=10;" parent="1" vertex="1">
                    <mxGeometry x="80" y="280" width="60" height="30" as="geometry"/>
                </mxCell>
                <mxCell id="29" style="edgeStyle=orthogonalEdgeStyle;rounded=0;orthogonalLoop=1;jettySize=auto;html=1;entryX=0;entryY=0.5;entryDx=0;entryDy=0;startArrow=none;startFill=0;startSize=12;endArrow=none;endFill=0;endSize=12;fontSize=10;dashed=1;" parent="1" source="30" target="10" edge="1">
                    <mxGeometry relative="1" as="geometry"/>
                </mxCell>
                <mxCell id="30" value="Sensor" style="shape=hexagon;perimeter=hexagonPerimeter2;whiteSpace=wrap;html=1;rounded=0;shadow=0;glass=0;comic=0;fillColor=#B1B1DE;fontSize=10;" parent="1" vertex="1">
                    <mxGeometry x="80" y="210" width="60" height="30" as="geometry"/>
                </mxCell>
                <mxCell id="31" style="edgeStyle=orthogonalEdgeStyle;rounded=0;orthogonalLoop=1;jettySize=auto;html=1;entryX=1;entryY=0.5;entryDx=0;entryDy=0;dashed=1;startArrow=none;startFill=0;startSize=12;endArrow=none;endFill=0;endSize=12;fontSize=10;" parent="1" source="32" target="20" edge="1">
                    <mxGeometry relative="1" as="geometry"/>
                </mxCell>
                <mxCell id="32" value="User Interface" style="strokeWidth=2;outlineConnect=0;dashed=0;align=center;fontSize=12;verticalLabelPosition=bottom;verticalAlign=top;shape=mxgraph.eip.control_bus;fillColor=#c0f5a9;rounded=0;shadow=0;glass=0;comic=0;" parent="1" vertex="1">
                    <mxGeometry x="680" y="200" width="90" height="50" as="geometry"/>
                </mxCell>
                <mxCell id="33" value="System Log" style="shape=image;verticalLabelPosition=bottom;labelBackgroundColor=#ffffff;verticalAlign=top;aspect=fixed;imageAspect=0;image=data:image/jpeg,/9j/4AAQSkZJRgABAQEAYABgAAD/2wBDAAMCAgMCAgMDAwMEAwMEBQgFBQQEBQoHBwYIDAoMDAsKCwsNDhIQDQ4RDgsLEBYQERMUFRUVDA8XGBYUGBIUFRT/2wBDAQMEBAUEBQkFBQkUDQsNFBQUFBQUFBQUFBQUFBQUFBQUFBQUFBQUFBQUFBQUFBQUFBQUFBQUFBQUFBQUFBQUFBT/wAARCAEBAiYDASIAAhEBAxEB/8QAHwAAAQUBAQEBAQEAAAAAAAAAAAECAwQFBgcICQoL/8QAtRAAAgEDAwIEAwUFBAQAAAF9AQIDAAQRBRIhMUEGE1FhByJxFDKBkaEII0KxwRVS0fAkM2JyggkKFhcYGRolJicoKSo0NTY3ODk6Q0RFRkdISUpTVFVWV1hZWmNkZWZnaGlqc3R1dnd4eXqDhIWGh4iJipKTlJWWl5iZmqKjpKWmp6ipqrKztLW2t7i5usLDxMXGx8jJytLT1NXW19jZ2uHi4+Tl5ufo6erx8vP09fb3+Pn6/8QAHwEAAwEBAQEBAQEBAQAAAAAAAAECAwQFBgcICQoL/8QAtREAAgECBAQDBAcFBAQAAQJ3AAECAxEEBSExBhJBUQdhcRMiMoEIFEKRobHBCSMzUvAVYnLRChYkNOEl8RcYGRomJygpKjU2Nzg5OkNERUZHSElKU1RVVldYWVpjZGVmZ2hpanN0dXZ3eHl6goOEhYaHiImKkpOUlZaXmJmaoqOkpaanqKmqsrO0tba3uLm6wsPExcbHyMnK0tPU1dbX2Nna4uPk5ebn6Onq8vP09fb3+Pn6/9oADAMBAAIRAxEAPwD6o1/Xv7IaWe5uDFCGVN2M8nAHbNV5fEKwXYtpL1Em2GQqzAbVGOT6feHXrVXxho8mr3sQCrJDGzFomneHcSu0HcgJ4Bbj3rmIfBWoJPG8rWdwqMGxI53MQUPzN5fI/djjtzX0Cs9z5pvsdmde25P2yPYAcvvXaMY4J6A8imzeIVt43kmvEhRAzEuyjhRkkeoArjYvA11HLE3l2ZSNUXyzIdrbQoyR5ffaKT/hB7/y44w1oFVHRj5jbmDLtxnZ079PyoSXcDsz4gRVDG/hAxkHzF9M/wAuaWDXxcxxyR3iMkmPLbcAJMgN8vrwc1xl14J1G7WNWazRRKZn2Ow3tlT/AHOPuAd+vsKP+EK1AqgLWZIVUYhyMhQgG3938p/djJHXJFOyFc6688Tx2Fi15Ldg2yuqGSLDgEsFA4z3I+lOg8SJcXVzbpdjzbaUQyBsD5yu4KCepx6VzcXhi9i017EQ2XkPJHIQJmH3FQYwI++zn61RXwNfAwF3t5XjZWd3uH/eEYyThBySAc9vSj3Qv2O4TWWkBKXkbgHBKupwf8kUJq7yTyQLcq08YBeMEblB6EjriuKXwTfR+WIjaQqAiOA5O5Rsz/BwSUBz9a6ebRbe51eLUZi8s8IIhUkBYsjBIAGST7k+2Kl2KRLH4nWXUJ7NZ5DLAQsjGMiNWIBCl8Y3YYHHvUlx4kitQDNqEEeWVRukXOWOAPxPFcf4j8I6pq1zfXMa2ZkkhaKFVlMTZ42M7BPm2EBgD0PeqS/De8SSGRGtI2jSEFVkYh3jKnc3yc5Kn0+8eTxVadRX7HoDa5tUsb2EKGKZMigbvT6+1R3PiJbW3ine6BhllSFHjw4Ls21Rx78V5+vwvuBZfZma2cbHjDNKxOGiMYzlDkgMTnj6Ctc+FNRXS3s4TZxZvxfrJ5rEKwcOF27BkZFHu9wuzsG1WRJDG1yqyBS5RmUEL649Peli1WSdA8VwsqHo0bBh+YrgtX8Dalq0l1PO9q8s4LsI5WQmTy/LGGKHC4/g5Ga3vBukXmj6PJFqC28dzLcy3DJbHKLvbdjoP0FHuhc6L7dc/wDPVqPt1z/z1aottG2p0HoS/brn/nq1H265/wCerVFto20aBoS/brn/AJ6tR9uuf+erVFto20aBoS/brn/nq1H265/56tUW2jbRoGhL9uuf+erUfbrn/nq1RbaNtGgaEv265/56tR9uuf8Anq1RbaNtGgaEv265/wCerUfbrn/nq1RbaNtGgaEv265/56tR9uuf+erVFto20aBoS/brn/nq1H265/56tUW2jbRoGhL9uuf+erUfbrn/AJ6tUW2jbRoGhL9uuf8Anq1H265/56tUW2jbRoGhL9uuf+erUfbrn/nq1RbaNtGgaEv265/56tR9uuf+erVFto20aBoS/brn/nq1H265/wCerVFto20aBoS/brn/AJ6tR9uuf+erVFto20aBoS/brn/nq1H265/56tUW2jbRoGhL9uuf+erUfbrn/nq1RbaNtGgaEv265/56tR9uuf8Anq1RbaNtGgaEv265/wCerUfbrn/nq1RbaNtGgaEv265/56tR9uuf+erVFto20aBoS/brn/nq1H265/56tUW2jbRoGhL9uuf+erUfbrn/AJ6tUW2jbRoGhL9uuf8Anq1H265/56tUW2jbRoGhL9uuf+erUfbrn/nq1RbaNtGgaEv265/56tR9uuf+erVFto20aBoS/brn/nq1H265/wCerVFto20aBoXLO+uPMP7w9Paio7Nf3h+lFUrC0PRtL8CaXqOnwXd0JpZp1Eh2ylQM9gBVr/hXGh/88rj/AMCGrY0HjQtP/wCuC/yq/XmOcu57EacbLQ5j/hXGh/8APK4/8CGo/wCFcaH/AM8rj/wIaunopc8u4/Zw7HMf8K40P/nlcf8AgQ1H/CuND/55XH/gQ1dPRT55dw9nDscx/wAK40P/AJ5XH/gQ1H/CuND/AOeVx/4ENXT0UueXcPZw7HMf8K40P/nlcf8AgQ1H/CuND/543H/gQ1dPRT55dw9nDscx/wAK40P/AJ43H/gQ1H/CuND/AOeVx/4ENXT0UueXcPZw7HMf8K40P/nlcf8AgQ1H/CuND/55XH/gQ1dPRRzy7h7OHY5j/hXGh/8APK4/8CGo/wCFcaH/AM8rj/wIaunoo55dw9nDscx/wrjQv+eNx/3/AGo/4VxoX/PG4/7/ALV09FPnl3D2cOxzH/CuNC/543H/AH/aj/hXGhf88bj/AL/tXT0Uc8u4ezh2OY/4VxoX/PG4/wC/7Uf8K40L/njcf9/2rp6KOeXcPZw7HMf8K40L/njcf9/2o/4VxoX/ADxuP+/7V09FHPLuHs4djmP+FcaF/wA8bj/v+1H/AArjQv8Anjcf9/2rp6KOeXcPZw7HMf8ACuNC/wCeNx/3/aj/AIVxoX/PG4/7/tXT0Uc8u4ezh2OY/wCFcaF/zxuP+/7Uf8K40L/njcf9/wBq6eijnl3D2cOxzH/CuNC/543H/f8Aaj/hXGhf88bj/v8AtXT0Uc8u4ezh2OY/4VxoX/PG4/7/ALUf8K40L/njcf8Af9q6eijnl3D2cOxzH/CuNC/543H/AH/aj/hXGhf88bj/AL/tXT0Uc8u4ezh2OY/4VxoX/PG4/wC/7Uf8K40L/njcf9/2rp6KOeXcPZw7HMf8K40L/njcf9/2o/4VxoX/ADxuP+/7V09FHPLuHs4djmP+FcaF/wA8bj/v+1H/AArjQv8Anjcf9/2rp6KOeXcPZw7HMf8ACuNC/wCeNx/3/aj/AIVxoX/PG4/7/tXT0Uc8u4ezh2OY/wCFcaF/zxuP+/7Uf8K40L/njcf9/wBq6eijnl3D2cOxzH/CuNC/543H/f8Aaj/hXGhf88bj/v8AtXT0Uc8u4ezh2OY/4VxoX/PG4/7/ALUf8K40L/njcf8Af9q6eijnl3D2cOxzH/CuNC/543H/AH/aj/hXGhf88bj/AL/tXT0Uc8u4ezh2OY/4VxoX/PG4/wC/7Uf8K40L/njcf9/2rp6KOeXcPZw7HMf8K40L/njcf9/2o/4VxoX/ADxuP+/7V09FHPLuHs4djmP+FcaF/wA8bj/v+1H/AArjQv8Anjcf9/2rp6KOeXcPZw7HMf8ACuNC/wCeNx/3/aj/AIVxoX/PG4/7/tXT0Uc8u4ezh2OY/wCFcaF/zxuP+/7Uf8K40L/njcf9/wBq6eijnl3D2cOxzH/CuNC/543H/f8Aaj/hXGhf88bj/v8AtXT0Uc8u4ezh2OY/4VxoX/PG4/7/ALUf8K40L/njcf8Af9q6eijnl3D2cOxzH/CuNC/543H/AH/aj/hXGhf88bj/AL/tXT0Uc8u4ezh2OK1jwBp1parLZvNbvvCnc+8EEHsfpRXT61/x4j/rov8AJqK1jJtasxlTjfYZpEgg8O2kpDMI7beVQZY4BOAO546V478PP2mm8XQ3Wr6r4bj0fwnHZzXo1e01Bb5rRI2wUvIY13wORyBg9G9K9i0mIzeHbWMSPCz2wUSxHDoSMblPqOo9xXimhfs+6no3iw+JvFWs2PiSCwsLu3ZNG0NbfUtXjmj2MLx1bE77egAGWwayVru5q78sbHputfFzwh4euLmC+1uOOe3jtpHiihklYi4z5AUIpLs+0kKuTgZxisW4+PXhlfFXhHR7WSa7h8RQ3FxFqCwSLFAkXBD5TKncCDuxswS2OM+c+AfgDq2p/BWbT9aFvHr+pajFeumv2zO0dtbgRWsL+U6vFIsKg7kbcpY+9dFZfs/avbWHhC3uPFK6i2lW2p2F612kshe1vVCtHA7OWBiUBUMhbIHNU1Ff15f5ivNr+u/+R2Mfx18ByaRd6p/wkUKWNq8KSyyQTJxM22F1UoC8btkK6gqcdak8OfGzwR4t1i10rSteS51G5aWOK3e3miYyR8yRnegCyKOShw2OcYrzLRv2WJ9L8M/2YdQ0SO7in00Raha2M6yzQWlwJSJi8rZd9o4QKqnJA5xXVad8D7yx8WabrDaxbyR2nizUvErRCFgzpdQmNYs5+8ucluhotC+/9aBefb+v6/M6+Pxy0nxWuPBv2IBYtGTVhe+ZyS0xj8vZj2znP4U6/wDin4U0zxbF4Zudahi1qR44vIKOVSSQZjjeQLsR3AyqMwJ7CuV8b/Dfxtd/Ev8A4S/wb4m0XRZpNJXSpodX02S7DKsrSbl2uuOT+lZ958CdW1HWtQE/iKz/ALC1rV7HXtWgWyYXLXduI8rBJu2pE7RKcMCyjIB5qIpO1/61/wAim5Ju39af5nY6d8Y/Bur+J4/D1lrkdxq8txNaxwJDLtkliBMqpJt2NswckEgHjrxXZ18zfD/wN4qs/ij4T059L1G38MeF9V1i8juL/T1gxHchtv78SssxLOduwD5Rlua+mackklYIybbuFFFFQaBRRRQAUUUUAFFFFABRRRQAUUUUAFFFFABRRRQAUUUUAFFFFABRRRQAUUUUAFFFFABRRRQAUUUUAFFFFABRRRQAUUUUAFFFFABRRRQAUUUUAFFFFABRRRQAUUUUAFFFFABRRRQAUUUUAFFFFABRRRQBR1r/AI8R/wBdF/k1FGs82I/66D+TUVrDYwle4uif8gax/wCuC/yq7VLRf+QNY/8AXFf5VBrfiCy8PRxzalqelaXBL5hibUbzyC4jQvIRlTwqgseeACTWLdtzaK00NSisL/hLdOFrqN0+saJDZ6c8Ud1dy3+yGJpFVkDOUwMhlP8AwIVBb+PNEu7yW1h8Q+H5Z4rZL10XUs7YG+7Ifk+6fWp5kVys6SispdftHvLK0GraGbq+klhtYf7Q+aeSM4kRBs5ZSCCB0rE1D4j2emaVaahPb3AgubqezVEtbhpY5IQ5l8xBFlFURudx4wMjqKOeI+VnYUVzmoeOtG0m2vJ7zxBoFvFZyxQXLPqJHkySHEauNmVLE8ZqxpXii01vX7nRLO/0uTV7dFleyN0yytEyqyyopTLIQ6/MOO3ajmQcrNuipX0rVI0Z2jsgqgkn7Q/A/wC/dcPpXxU0LVobOVdUsLNb66NnZjUJJLc3UoVWIi3xjfwy8j1x14o54hys7OiuduPG+kW328HXdBkksJVguootR3yQSM/lqjqEyrF/lwe9TyeKtNhv9TsX1zw+t7pkZmvrdtTAktUGCWkXblQNy9f7w9RRzIOVm3RWdYatDqmgvrlnqWi3Wixo7vqEOob4FVM7yXCYwuDnnjBrHi+IuhXFzpkUOv6FOupu0VncRahugnkUqDEsgTaX+dCFzkg5HFHMg5WdTRXP3njXRtPspLy68Q+Hba0jTzHml1QKir5jRZJK9PMRk+qkdjVhfEVox1M/2no4j0yGK4vJjfERwRyLujZm2YAZRkexHrRzoOVmxRWLY+KdP1WW0isNZ0O/mvIHubWG11DzHuI1JDNGAnzYKsOO4I7VlT/EiytrTRbqSOUQaukkkDC2uD5SRuqSNN+6/dBWdQd2OvtRzIOVnX0Vzd/490TTIWmuvEPh6CJb3+zWdtS4W6wT5J+Th8KTg+lKnjfTpH1qMahpwuNFYrqFsZ3863AIG9k8vds5B34xg56UcyDlZ0dFTDR9WPSKyP8A28P/APEUv9jat/zxsv8AwIf/AON0c0e4crIKKn/sbVv+eNl/4EP/APG6P7G1b/njZf8AgQ//AMbo5kHKyCip/wCxtW/542X/AIEP/wDG6P7G1b/njZf+BD//ABujmQcrIKKn/sbVv+eNl/4EP/8AG6P7G1b/AJ42X/gQ/wD8bo5kHKyCip/7G1b/AJ42X/gQ/wD8bo/sbVv+eNl/4EP/APG6OZBysgoqf+xtW/55WX/gQ/8A8bo/sbVv+eVl/wCBD/8AxujmQcrIKKn/ALG1b/njZf8AgQ//AMbo/sbVv+eNl/4EP/8AG6OZBysgoqf+xtW/542X/gQ//wAbo/sbVv8AnjZf+BD/APxujmQcrIKKn/sbVv8AnjZf+BD/APxuj+xtW/542X/gQ/8A8bo5kHKyCip/7G1b/njZf+BD/wDxuj+xtW/542X/AIEP/wDG6OZBysgoqf8AsbVv+eNl/wCBD/8Axuj+xtW/542X/gQ//wAbo5kHKyCip/7G1b/njZf+BD//ABuj+xtW/wCeNl/4EP8A/G6OZBysgoqf+xtW/wCeNl/4EP8A/G6P7G1b/njZf+BD/wDxujmQcrIKKn/sbVv+eNl/4EP/APG6P7G1b/nlZf8AgQ//AMbo5kHKyCipv7G1b/nlZf8AgQ//AMbpf7G1b/njZf8AgQ//AMbo5kHKyCip/wCxtW/542X/AIEP/wDG6P7G1b/njZf+BD//ABujmQcrIKKn/sbVv+eNl/4EP/8AG6P7G1b/AJ42X/gQ/wD8bo5kHKyCip/7G1b/AJ42X/gQ/wD8bo/sbVv+eNl/4EP/APG6OZBysgoqf+xtW/542X/gQ/8A8bo/sbVv+eNl/wCBD/8AxujmQcrIKKn/ALG1b/njZf8AgQ//AMbo/sbVv+eNl/4EP/8AG6OZBysgoqf+xtW/542X/gQ//wAbo/sbVv8AnjZf+BD/APxujmQcrIKKn/sbVv8AnjZf+BD/APxuj+xtW/542X/gQ/8A8bo5kHKyCip/7G1b/njZf+BD/wDxuj+xtW/542X/AIEP/wDG6OZBysgop1xp2pWse+VLNVyBnz3PJ/7Z1EsF85AVbMk8Aee//wAbo5kHKyprH/HkP+ug/kaKNVO6wU4xl1OPwNFdEdjnluO0cY0iy/64r/KtG78Jad4x0GOy1SJ5YI7oTgI5Q5U9MjnawLKw6FWYHg1n6R/yCbL/AK4r/Kum0aVItP3OyoPMIyxwM54Fc1TY3p7HK6v8IbLV5PEjT65rgTXRGLmKO5QJEEIKiMGM7RgbcHOQT9as6n8P9MvLi5ubzVtSUS6cbK7QXgjjmQKyiaQAAbwHb5uBk5xkDHZls9uvtXlXif4E2vir4jXfiS71d2gvNNm0u4017cOskEkXllCS2CoPzgFCd2ecYA5+puPi+Anh25vtF1STVtZ1C70y6N7Bd3F6srPIZPMyWKdNxPC7QQcHIAAp6L8OPBPi+3hii8S3PiuHSdafVHS5u4bpVuWVgyOvl42kSMcY/iyCOK7vwT4Vfwh4UttG+028pt1ZVe0sY7SJQSSAsKfKoGfU5OSeteczfAW9t9It7OK90/UJZr9ZLuaS3NrHFaNH5VzHBEBIA0sZZWAKryCANoFPS4ulzdj+CvhnSdT8QanDqOoWNzrBjE0q3aL5TrP58bISudwkYkbi3B29MAXbn4WWhnuru08Q6vaajJFIY7lrpZTG72wthLhhliFUMMn73PtXMzfs2aTdan4sv5bi0mn1ySCRI5tMWWGHyZ/NiDxuxWTGAnGwbQeMnIpeJP2YtP8AE2s32pT6xHLLeWkFpcC4s/MUCMRAqsYkWJUIiX5Nh2kkg0hnrnlW2h+GDFdajMLOys9kuo3M/wC9CImGleQ/xYBYt65NcB4U8EeEdStHh0XxVfahd295DfXF/baiv2p2eABFkZFHyvFjsGIOc55q94O+Etx4M0C20K18QE6MouVntEsY0E4ljVV5ySpVg75X7xc56VyP/DKOmjStNs28QX161jfC+R7/AHMCxjjV+I5IyGLxtIGz8plcAYIpp9QWx1sXw20XxR4e12Kz8Tatc6frt4byaezvIyVbOGSNgnC/KqkHJ+QDPFc/4h0fwM95qkV148lt9Wiad5DPfxk29wkEGZWQKPmjEUMmM4B5PBrU8K/BO88HLr8+m+JUtNU1NpGS/t9KiRkMlw07NKpJE7DeUUtjavAra1T4bX17rmp6ha+IHtEuI5mgtmtVkWCeSJImkJ3Auu1BhOMEk5PACAg8JaBYt8GhpVl4mGs2l1Y3I/4SB0V1mMpdnnwpCkbnY4Bxx171y/gT4ZeE/EPhSybTfGt94jKWwspdVsr2P9/hYeyqQuFhTaB/Cx5Oc132j+EtY0nStCsG8Q+dDp9hJZXCixRRdttRYpDkkoUCt8qnDbjnoK87f9mRBoPhSyj8TXK3uhTRXDX8sTytcyRmPy2w0pKEJEExuKbWbCjIw/MOljfv/gvYeILDxFaa9q8l3DqupfbStrEkKwxhSqwbX8wEbndycDLuWGDimR+FfCN74j1Kzh8V3v2ye3SyGlpqKYtPshR0aJSu5XiZ0bJJ5kG7ORXJXX7LX9vHxJFql9p8UF5dwy2klrbOJJo4zOc3hVozM5+0HkMOUQ5JFb2o/s7JqM2pynXRHJqFs9pKws2ZniK2yrGzNKSVAtsEghmDn5sgGlcDab4JaE/ijS9fOqavJrNhGyxXLXas7krIpdsoecTPwuF5B28CsrTfh54Gg1bwnaT+IZtYv9GvbtdOg1G6hnZ52VJJUIKcsgCuMYZc5ziqOk/s0x6ZDYK2vJLc2tlFp4v105FuzAkc6FBMXLAETj1/1ajntp+Hfgnqnhg2S2PiSxtraHWTrD2troaQwkmAQmNEWTCLt3HIydzZ7YpiLOk/Abw5oUOrLp2patZS39zHcvcQ3qrLDJGHAKMF67XdWLbmIOSc81Rm8NeDNX13XdAtvGErazdw3kF3p73qSMiT+SZxsIByFRACSSobPNZlv+y7YWGkajp1tqNtNBearBqb/wBpWDXm8xM5CyB5trMd+GdQu4Aggg8busfAm31aHxhH/aMdv/wkDWwBS1OIYYQgWAjzMOhCY+XY2CRnphdNRvc9O8yG0iClkjjRc8tgKo7/AEHrTo7mKZEaORHR/usrAhvp615HpX7O9paJpUWoalBrMVnpq6a73umxyXDosLwjZKxYxqUc7lAO45OeTUtj8AoraDw5EdTtMaOQqrBpEUKqglWRfICn9w524ZxuLAnPagD1kzpjhlPf7wqpq+u6foGmy6hqV5BY2MQBe4nkCouTgcn1JA/GvI5vgFNp/h17DThoct9c6u15NfCwFm0dvKXFwgCiTexjlljXO0AOP7vPaa14BvdTtri2t9bFjawyW0uk26WSFNOMSbSBggyBsnqQV42kYo6AdPYa9puq6bFqNnfW11p8sXnR3UMytG8f98MDjHvVS/8AGug6XexWl3q9lbXMwjaOKSZQziSTy4yPXc52j1PFeX2n7MunDXTqeoavcaxLPpT6XdtqAkleVXiaJiC0pXYQ2djq/IznPNXI/gGVk0CVtYtUl0ZY1tvsukpbxxFbgTExxo4VcgBeQ3OW5NAuh619ojwDuXBOAdw5OcYrL1fxlofh9pl1PVbOwaFEllFxMqFEd9isc9AWIXPqa8d079liKw06S0fX4L1Rcz3kD3elLKbeeSBYvMTdIdrAqJMjA3ZIC8Y1Jv2fLtL3xFc2HiaGyl1m0ks5JP7IRpSrzeazSPvBlfllBPRcdcUDPYzMgJBZQQMkE9B61WvtVtNOjSS6uYbaNmKK0rhQzAEkD1OFY49AfSvLdV/Z+i1jxXq/iK41aObU9V0ttPuHntXkQM0KxMyx+ds8s7Q3lspw2Tuya17P4SnR9G8I2Wn3Npavobzbmt7TyYpfMt5Ii4jBOHBcNyeTuyfmoA6zSPGWha/uOm6vZXuNmRDOrH50Eid+6MrD1BBrTjvreUOUmjcISrFXB2kdQfQivIdO/ZxtNMs9Ojj1Cye4sL2K9t55tIjm8thbpBIVEjNhm2Bw2flOOCBVPxh+ztLqUjjR30Bbe48QR6zNDf6PEVQHzTKW2jNw5MpwHKgDvnmmCPWP+Ex0P/hIv7A/tiy/tsJ5h0/7Qvn7cZJ2Zz05+nPStX7QmASy4IyDuHI9a8yi+C9xBol3osXiJm0e4iBNvPYpIxn2oCzOTloj5YzFxkEru28VT039n210/XNP1Q3tg9xbCNDt0iNP3QedpIYzuPlxOJ9uwZACgc5pIR6vFeQ3EaSRSxyRvjY6OCG+h70S30FuqmSaONWIUF3ABJ6DnvXjM37MlhNpnhmyOpxRxaBcGW1htrH7LBs/d4+SCSP96PKU+aSfvNxg4Fay/ZasrWPxE0urWt/Pq1/Fqa/btGgmitZ0llcBIyceVtlI8vgBi75zI2X1A90MgAycADkk9Kb5ynHzL8wyORyPWsHxN4S/4SbwhPoct0EMkcaGd4VdWKFWG+LhWRiuGTgFSRwDXns37Otu6xBNSsYFW0ktysGjxIsZZZQRCA37qI+cS0QyGxyeTSGeum9gWSONpo1eTOxS4y2OuB3xTxMhJ+deDg/N37ivKNM+AFppM+iTW13p0UmkXrXFpt0WErBE6QiSOIEny2LQh/MHOXbgnmuX1P8AZE06+8O6posWvzWltf6gNQe4Fu0tyWVJQoZ5JWBJ83Dsqr5iBkbKsaYj32K7hnd0jlSR0O11RwSp9CO3UU64uI7SGSaZ1ihjUu8jnCqoGSST0AFeaQ/CfUvDkniO/wDC+p6Xpes6tbxoLj+x4l8ucJGjTMV+Z1AjysR+UEnJIxjvdZ0ybVNBvbCO5WKa4tngE8sKzKrMpXc0Z+VhzkqeD0pMZFofi/RfE1qlzpOq2eowOzIr286uCy4DDg9RkZHbIq/PfwWyq0sscasyopZhyzHCge57V5jpHwJh0m48PXY1C1l1DSbieVZ5NMjk2RyvGxig8xnaAAxDBDN958YyMVLX4By6boDWWn6ppNjfHWl1n7fFoMYbcshkVNvmdQzMAwIIQlQBnNMR6956Yb5lwvXkcfWlMqhckgD1JrxjWf2fJHTXbnTbzSmvdSlkunt7jS1S3upWuFmQXOCTKigMu0j+LPFdp4e+HzaN8JbPwcZbQSR6X/Z7zJbBoNxTazCIkArkk7See9LoM7Lz1LAZXcSQBnqR1pDOnTenf+IfT+deNW/7M2mw3Pg65F9FFP4ejEY+yWz28cmH3eYiJKAkp6M537+Mg9Kx9N/ZjvbM+IIV1bSrJbxokt7+30pJJng+z+VIssbfL5hYK/mBjuYFiAabsB74ZkG7LKNn3iSOPrVDV/E2k6DY3V5qWpWtja2ih7iWeZVWJTgAtk8ZyPzryW8/Zks5x4uVNXB/4SOVJbhrmCWUkCbzSr/vwGG4kKVClRgZIHO7ofwNtvC2oG60i+traU6LFpLTSaXC87tFEIo5DLw20AKTGCMlRzjikB3nh/xXo3ivS49S0bVLTVNPkJVbm1mV4yQcHkehGK0vPTj5l5baPmHX0+teRav8GL6/i8P2UjaTqlrY6UbC/uLyIxvfmNc2qtGFYBEkAcndnOeDXM6V+yjHJ4S8PWOranaJqOmvFK0em2skNmWWJELBEkjYy5jB84kE5Py80wPobPGaxpPGWhxa3Joz6tZJqscRnezadRKsYAJYrnoAQT6Aj1pPD1lrNq+qtrGow3vn3sklnHBD5YtrbAEcZPV24LFj3YgcAVxfiL4KxeKtf8QXuo6jDLZ6rZy2f2NLBBw8aKDKSxWbaU3LuQEEgbiABSBHpQuEYAqysD0ww5/zg1Hb6hb3cSywzRyxsSFZWBDEEg4/EEfhXnFr8F1i8R+HtXnutJuJNHsJLOKP+w4owrM5dXi2sBGFO0BQDxu5y5NY8f7PUr6Zo1tc61p08+jm5NhcDQo1+zGWaOUGMeYdhQowXGOG9uQR7IJlYkAgkdRmo5r6C3jkkkljRI1LOzOAFA6k1518LvhTdeA/FXinVLp9NmTUTHFayWtvsuGiV5X3XL4HmSky4Ld9opPEPwJ0fV9V8R6nbi1tr7V7SSDM1hHPHBJKFWeYKcFmkSOIHJx8me5yDPR1u4WiWQSJ5ZUOG3DGCM5/KkivIbhFeOWORG5VkYEH6GvNYvgml14i0jVdZvdP1l7LR/7Jk87SUEko+YeYshc7DggYweNw6Maz4PgA9lo2h6fZa3Z2K6YwTMGiQIjwrLFKiKgICMGhBL8klmIxxg6CPUNU8QabosUEt/fW9nFPOlrG80gUNM5wsYP94ngCqll420DUdbvtGtdYsp9Vsf8Aj6s0nUyw8AncvUfeX/voeorzPS/2fdR0Cx8R2+m+LzE2tajBqMrzacJdrxyFydplALOwTcRgfLwozxe1v4CJ4gk8WzXmuzSTa7LHIm6J/KtVCQrLGI/N2lZPITcVCPjI3UDPTL7W7DTIbiW7vILaO3j86ZpZAvlpz8zeg4PPtVuKVZkDoyspGQynIP415Bp/7PaabYW0UOs25vU0H+wZtRm0qKS5mRVlSNvMLblAEpyoPzbV5HOei8H/AA81XwRcafZ6Zqtnb+G4Z7q4n0+309Yd29UEUUYBIRVYSOSOWJA6Zy9BXPQaKQdBS0DM3X8fYBnp5idPrXJeFtO1yy1LUpdY1mDVIbm682zt4bMQCyi4AiDbiZOmSzc7icYGAOt1/wD48B/10X+dZlt/ro/94fzpAYup/wDIPT/fX+RopdR/5B6f7y/yNFd8djhnqx+kf8gmy/64r/KsT4mfD6++JHhO00yzh06VUuZJHbUJXURkoyqyqEdZMFuUdcEdCp5rc0oY0qyH/TFf5V0+hf8AHif99qwqbG9PY8x1b4XeKo7TxjBpOqJG2rSRTWl0+sX0MkL5QuFCllgUbXwIwd24A4AwXax8O/F813fDTLu2tbW50D+zEll1u9a5iuB8yyK5UkbWJG8HeRgnJGK9cYDFeT+K4PidefEK/ttIlFp4SuNMmgguY/s2+C6MRMcwL5fd5nylSjLjB55A5zcyLz4f+O7fXvDEEN3cXekQaiWmki1+5U2lqs/mYk3ENcmRCIyr7tu0YOCa3vjB4X8WeJNe8LJ4ba5itYzdi+nTVpbKKLdGPKd1ibdKVcZVdpGfvYBNdh4BOrjwtZrrqXceqKCsv2+WCSZueC5gUR5Poo6YySc10X5U9gTPEZPhL46vbzxT/aPiUahZX8tvc2Nuup3VsI5YrjfjMQDQo8eEYIzDIzjnAuN8L/EtvrOs6iGs54NRtJIbmxh1C48u4/0JIl/duNm8ypkyMS+3GW7V7Fx60vHrS3AzvDlhdaZ4f0uzvrj7Ze29rFDPcH/lrIqAM/4kE/jWjijPuKM+9HqAYpaTPvRmmAYzRgUE4GaM0AGKMCjNGaADFGKTJpc+9IAxRjNGaM0wDAoxRRketABigACjNGaADFGKM0ZoAMCjFGQO9GaADFGBRn3ozSAMUYBoB9xSE0ALgUYozRkUwDAowKM0ZFABijFGc0ZpAGBRgUFqQNmgBaMUZ96M+4pgGKMUmTmjJoAXFGKM0Z96QBijFGR60ZpgGBRijNGaADFGBRmigAwKMUZoz70gDFGKM/SkzzTAXFFGaMg0AGKMUZoz70AGBRijNGeKQBijFJu9xQGzTAXFLSUtAGbr/wDx4D/rov8AOsy2/wBdH/vD+daev/8AHgP+ui/zrMtv9dH/ALw/nSAxtR/5B6f7y/yNFLqAzYJ/vL/I0V6MdjhnuP0r/kF2f/XJf5Vh/E3V/EWl+ErQeGZtQg1CS6f5rDTmumcBGIQkRSiPLbcMybcjBK5zW7pn/IMtP+uS/wAq6fQv+PE/77VzVNjogeVap8UPFcT+KLTSLXTtV1DQ9iPFDazznfM6eSrCFmbciCbzML1CEbRmlt/HXxJhtpJbnQIJ72XQI7620uHTJ0T7b5bGSN7kyFUAcKBGU3ncPQmvZCBg4ABNeT+K/jmdA+IN/wCELTQ2vtQi0ya9tpXuhGk86Q+aISu0uAV/5aKGGcjGQcYeRscxpvxW+Kc+o6St14UthZuqG++z6PqG5cyyg7GkCYOxE4KnBcHLDFbHxb8VeOntbO48EaZrYKSX9ldwfZIlb92QEuEEiNu+6xi/hfcMgivQ/BPi6Pxh4TtdaDWYEqsXFjcm5gUg8hZSibsdyF65HOK8y8LfHPWb/Rb3Ubux0vWIFvfslvNpE5ELPJFut4xIGlEhkkKx5+QpvUsgzii2thJ9Slq3xE+KUF7f27aGLKCx1aCCC5ttKu75prYu6ySSosYWRSmyT9y4IbCnHNdnr/jLxDP4BvEt9K1TTfFJ0ZL5JbWwaWJJmfaI1yr5fI3GPazKrVg3X7QN+NT8V2lr4btNvh+W2jlvLrWVS3YPOIZS7JG5i8s7j845AJ4GareJv2l20LWL6wg8Mi7SCzguYbyXVoreK5aQREbFZfMMf7wgSBDlkIIXrSewzQ8J+JvHsesaTb6xvnsrua9imc6HMzJItw4ixKDEI4RFsIeSPLhTgkmsGf4x+ONKk8K6Zd21m2u6it2Li3fw/dxvNLCkTBIUEzHYd7qZzlBgEZA57Hw38ZrfxX4TF1GlvpXiG7iu/sOnTSm5DyQxCTkqFyArxkjg84B71wWiftN63/Z1lfal4Va5jvb6KzjC7dO8keRFIzs08hVy4mV0QFTjcpOVJLvcaXUr3Pxq8b+GbuSLUNP1CxttW1xIdMutf0dp9tu7TJ5McVt5bs4MUbqr/OVkPUAGtrQ/i94t8S3/AIp06e1+zf2bG8Ug0XS55bqzc20UiNvbzI5JPMkKeTs3DGSMAitvwH8ebXWrLW59f/s+wtdJaXztQs7kyxqq3LwL5seCYWbarKpZsg546VQ8QfGfxDo3jXxBptpY6RqNlpsd3JEjT+TLO0NvBL5RId2Vh5rlmMWCAoHOSTyFZmzYfEDxFJd+FE/srVLkXuiSy3UM2jXEBW+ULtWWUrsiDFZBtIGODnBWsK8+K3xDsLXSJovCzasJ79Y7sx6Je2xitz5QcKjF23qXkO9gEYR8YPB17z43zWlzZBbDSLqzvNJm1CCaDV3JuZo/M3wQDyMSAbATJlQA2cYxnlpf2ofNHhu7WCxtrO4k83U47cvqKx2ZWH96s8e1YzG0yh96FQVYZ6EiTQHSal458aaXoOuNcWc91qNnqqwwrp/hy6IltTcMMIRI/mMYQG8xRtXOCCTgP8QfEHxvFqWqwaXoY8lCgtTcaNeSBEZ4QsjurASblkkJjQBo9nzHg1z0X7UjTWFvcDQ9LjE16bNpJfECLBbH9/jz5PK/dsfs5IXByHU56gdC/wAb4oW8WE3mkCbTdGttWt9Pup/s80JkVt8U7bmGQRHyFH+sUY5BpMNmX9S8a69dfDu6C6fq9h4mm0q+mhu7HR5GSKeFvLQiKQMdzlldI23blDckDNcfafEn4naRqdnFfeHZ9VW51aOK8MWmXHk2tqUt1/cOsYLEF5ZGaQbcqyg8AV00vx4tVutMFvbWl5Z3Vgl81wL8LLIpjkdvs8KoxmCmMq2GG0nvg1l+Fv2i/wDhKYPD10NGs9Ns9QvrjTrt7zVQTBNG0exIvLjYTM6yFguVPyn0JDW4tlYj1n4hfE7SPDl01poFrrGswao9tI0mkXlvbx2+ZdjKEaV587Y8vGNq+ZyDggaWpeO/G6r41MdikK6baK2mrFoN9NLPM0aHCtkLKA5ZPlAP8RACkGOT9oC2i0rVLmNNKu57LVptOYLqqx28aIhdGeYqcM4UhV28tlc8E1oeH/jjZ6jq+sQ6pa22jafYQXV0Ll78Sy+VbiMzNLCEBj2iUcZY/K3oMrfYbKz/ABM8Uy+ONL05fDWow+FbzTDNPqY0y4+1W8/lM+QNhUYKhNjKG3EcEYynhvx74iez+Hy31nrMpvWlt9XNxoM6TKwQhJJCqKkSl9uflAO7IICms/Xvjfe6P8StV00X/h5fD9lpC6nELyXyZ7hjC8nlh/MJUYQPv8kqFyDziqPh/wDakPiBvDBj8HXkC6zeSWsi3F/DFJZlZUj2yLJtzL8+8xLkhdpBYsBQgYy6+K3xSGi3l1Y+E7a5uE1ZrZFu9Iv7bZahG2uyL5juXdcBkBVVZSRk4CX3jb4l6NqXiC5t7G81W2QTrptnNpUzRqftUahpCkKMyrGX2BGZmX5iDjNak/7RsVhpV7qd5p+nW9nAXUN/bAZkkETyLDMoi/dTHyypj+YhiBzU2tfHy40G28USyaDbXsuk3EKW9rZamDNLDIUC3E2+NVgjxIDu3MDg46E0vMbK9p8UPiBcqLk+FmjjlsY2WwfSLwSw3JtfNffKSFZFkDJtCgsSBkHqnhPx14vn1XRP7Vh1ubz9R1C3mRfD81tbSQcm1kfdGXhGdoBZ+hO7OMiJvjprd9r1qmnafpc0EujNqJ0g3Sy3iT/ZmmWOSSKRgiHCgSLHIh3AbtzBatt+0M4vvCdrB4fi1Ea5GzNe2WrRG0hcOU2RySKhnIOCwRcgHgMeKrURS0n4mfE690Kzl1Hw5Y6TqU2rLZvGmk6jdJDAYyWdgFT7r4XeCUYHqtZh8dfEzQYfGF3bWWreJtSh1Mw6To11o8kVvLb+ftGJxDGFJXOJC0ihQrNya6bwz8d5fFvgSTXbbS7S3nM2nxKsV+LyCP7VIiYldVXa8e/Lp24554yPHfxt1vw1L4vTTtW8NXs2k6pZWMFrLH5bxpMAX852uVXcuSM/IMoc+gT/AK/ANmWrD4nfEmbUnSTwlAbD+xku4pmsb2GaS5MKM3yFSqAOZF8lnEnyDBJYVpWXxC8YreaRb3OkyXUd/cJGLqDw/eQqkfmyI7yq8hMOF8pvn6/NgEcrh3f7TS6Zrt3oo0iLxDLaaR/aX9o6Rc7be8cQJIYolcHa/wA28oXO2LDknOK1dM+Ps+r22gvFoFrbXGpozfZrrWodzkSvHi3MauJyNm5gCpUMuRkkB+YahY/EHxhb6D4bl1bT7ybUW1RLbVEsfDd0i+Vs+coN8hCqxH7w/KwBC9M0l/8AED4gPcXNva6LDbsL1YRJPol5KlvHulBBKuBPlURvMQqgLbTyQabbftDQ6mLCextNLewk1BLC6up9VZVty1ukygbYW3yZZ49nGWTAOSQL138c7a1/4SWNDpNxc6Tqy6btbVVigjjaMMstxKVPlZYOmNpw4C5PWgDEk8YfEPU9Y1G70uC/gjGitcRadf6LItvBdCGJwpLIjTEszqAkwYHIZBtyZfEHxT8e6TeWUkGg2n9h/wBly3dzqmoafeWxEqLKT+6G4QqNkZ2zOpYOfmUinz/tByOuqothpulGK1d7O41LVFwZhDBLtmjCr5agXCjO/qOcA7qm8N/G3VJ20WHVdN0+f7fYXF0s1nclJrqWKSVTFbW4Eiy8Rodwm2kPuBwRkA1/hh8TtV8UeFdK1TV9KnuBqdxBFb3OmabPDHtkgEhd0kYssSMGTzc7WJXGM1yy/ErxT4WXxFrOsXM0mjQ30KQR6rpxsyUeSVPJt1ZY2aQfuTu3yoVBIIJOIdM/ajkv7TR5pfC8FgL9rgeXca7AXJiMHyRBFbzJWE4xGdjZRhwME+h/F34kD4W+Dn1waaNVm81YorJ7uO18xiCcB5OAQFJx1PQUbB5HH3/jj4o/2xr2n2+i6esen6SJor9dLu3WW8UQl1RWdVlRt0wVUct8oyc8Gv4l+KHxJsLyEaV4Whu9OfSWuRd3GlXyzS3ISUgCBA3ljcsY8uR1Yh/vZGK0tR+PF1pEHiKS68PwtLptpb3ltYQ6gTdzxyJCS8iNEqxRoZWDOWP+rbjIIEXhX9oRvEXifS9Jl0GCw+229vPj+2IZrgeb5oJSNAVkRDC25w/CspxnKgYLubXw/wDHfiXU9PSLxVoV1Z6lcX5s45NP02aOGNPLdhK/mFtq/uyN2cZdFxzk+bad46+NOj6LdXc3h+fULtHtreNNVtiyGMicvOUtYvMLsyxKygFVDKwHJr6C0HxBp3irRLPVtJvI77TbyMS291EcpKh6MD3Hv3rwvwv+0jq0mn6lPqtrot20UyrBcW94trahT5xIll3zBHPkjah2sS4yAMGjqF9DqPB3j7xgNZ8SDXNGvrnSrJry4hWLSJo7jy02tEkTkKtwXy6oqqG+RSxJNQeIde8eS/EDZojXkGivHG0UN1pbsglazuGCs3lgeX5oh3nzQQ2FyATUmsfHRo7PxMIIbLRptMsZbuKbU5xI8ToE2rc24KGISGQBDvO7rxwC28/aHt7XxPBpkehyXunyaT/ag1aC9i8uTELykRRZ3yr8hUsgbDHkYBIARY03xv4yli8K3N3bmO1ukmi1Pd4buY3E4aPYQrT5gjwZMvJkHYSMZUHgbT40fEPxZ4L0TWdI0m91G5lkW8ZtA0poraWKOORprZmud4cEqirJGyli5C5K4PU+HP2lofEa6NINFtbOC6kaK88/WIjJbMLtLYbFVSJgWkRgQy8Z74z2fwr+JcHxKg154hHDNpmpzWT26JIrRqp+TfuAG5l+YhegYA4IIp31EeVXH7RfiVrHUr6BNMSxg1waSJptGvP9HBuViAYeYPPmKOWMceCpjII547rSPG/iOTXgL+01a2WbQTcNENEnks4btWJUqQgfcycmEyFgcLw3VNW+OH9mavrNodLsBHYS+RvuNWWJ4281Y/MuU8s+REd25ZCWyuOOa5DUf2tG05tRY+FYnt7O3Mwl/thAZGEKSbMeXxnzAAc8jn2qR2Or034heMLvT/CUg0a5he6t4zqAu9EujK8wcLNGBlBb4XLK8uVbIA6GsrRPid8RtW01Lq98OHRmt9XFvcRDQ7u4ee0aAujIhdCGEn7tnBZAefu81r6d8bo7/WfDEMtxpFrFqk11ataw3QuWuHjXMb20wKB1LDZgpyxIBBXnJ0P9o261zRbXVG8NW2jWraoNPuW1XWY18hTC0gY+UkhEmV2eU4U7sAE5poOhtXvj/wAT2934qht9Mu5Pseowx2t1LoV20SWrKod1RcNclX3D92wzndgKKd4W8eeMb3xRFBrGh/ZtKljxsg0q5WWOQWySlmmZihUuXQLgHOBnIIOW/wC0Sx1DxLZnw4NP/sm7W1jutT1SGCF8yMnmTAbngU7QyllIbegyCazvDHx48QeJNQ0xbO10bVVuNDW/fTrKU/aftPkLK0bHzGMS5OATGynKjfuOAtwsdV4i8Tavf6/4PudOPifTNP1CxnuLqyj0gMI2MW6JbgtC5ikDEjbuHIAPv55pfxK+KWg+CNCm/svVPE2uXV0V1QahoE8YsYdqEyRhI4TJtByY9pLszBGwnPaQ/Hoya7ZW/wDY1v8A2TeiOW3vBqY8+aKWWSOB0tzGCfMMeQCwwCOSeKypv2i7pBZXY07Rv7PPnNdRprKvJHEiROWDbABInmFWh2nnHzqBydRFuD4j/EZ5vEiXnhm106C1vVis54rC9vHWAySDzGjVVE+VWM/uXyPMORheZbr4g+PnS6sLfRCmqDTprmG5Oh3JtvMEMTxqSZQCxYzJ5e7dlVyQeGml+PBX/hIHXTtK+z6XqY0sXUmuxrDv5O+dvLPkIQMAkEl/lx0YwR/tDA3F+suiwQQwwF7ffqiea7iKCVhKmz90irOCz5bARjjFA+pqr488RLrOgRLpl9fRXemXUkqDQ7m0Q3SkeTvdy4hVwGARzuGQSeQKxF+JXxAIsZRoiywAvJcn/hH76N5lUwfu0QvmJsySjc+4N5e4DGRWjbfH6xN7pNteWtnatqDhInTURIkq7p1eSEiMeZGDCvzcZEgPBwDlaB+0QPEOn+H9RuodO8NW19rh0t7e9vEuDcxeSHEsMyMqDDMqkYfrg4JoFsQx+LfiJB/wkN7bve3NrFqEHlC/8OzP5VuZZVkSK3QRSyMqiI7leRSOQck4r+N/jR488I3fiO4udB03StDs1tvsV7fW13I8nmS26EsEAjYkSy/u1k3goBhskjsJ/irqSG9zoccB0y+trG9T7QZW8ya6EQjQbVy3lPFNnkYcLjvXpm3PBwadxnnv/CZa3c+DZUl03UrfXZ9MvrmC7stMkWMNEdsZ8uQMY5JNyskLhicMOcV53pXxH+JejaN4RiOlal4iur25263dX2hTxnT498ILxhUhMijew2lN2Sz5KREH6HC4pcdaXUDw6x+JXxMm0zV5NR8MWmlXEN95MLQ6bfXvlRbZCN0ShDN8yRr5kLFfn3EAAZu6p8QPHuNUsbTRWh1G1tGuEuX0K5ltmIkhIVSJQJGMTy/Ipzuj65+WvZMdKQg0wPKtK8deN734h6Nps3h6GPwvc2SSzalPZ3UE5kKOWIXa6Q4ZVHlSuGw2c5wDZ8K+MNf1K/8ADKXQ3PfXOqR6ha+UF+ypDIwjOcZ+UhE/2vMz6V6ZilApAApaKKAM3X/+PAf9dF/nWZbf66P/AHh/OtPX/wDjwH/XRf51mW3+uj/3h/OgDHv/APjwT/eX+Ropb4ZsE/3l/kaK747HHLcfpv8AyDbT/rkv8qZ4l8aS+CfDtvdwWUGoTTXYgS1lu/IeVm6LENjGSQ9AoAHUllAJqTTv+Qdaf9cl/lVLxlN4esfDdvqHiLw2viO2tLoumbSG4NoxGDKPMI28HHy/Md2ACTisKmxtTGah8Vry1l8QrBoSXA06Ce4tt1+ENwsEgjn8wbD5WC2V5bcAenSt2bxqbLxBc2V3ZmHTotM/tJL1JDK7gMA6+SqluMrggknJ4455fW/EPg1n8Wrd+D21AeUZb5v7Ngk/tVIHVHI3NmQQsQD5mMfw5FbFqnhHSfF+F8P2ml32n6Us0WsvZxQxx2oO3y0m4KqoxleFAYe+Oc1Ibn4r28uo6Wmm2T32n3TRie6nZ7WSLzJxBHshePc53nnO0BeQT0rNt/H2geJ9Ni1HxPo9t5dlqZTT57eN9UhaVAD5sTpF8rKSVLAYDKwDNjNams+L/Cd/ruhSvYweIJd2LfVrWKK5isTI4hB83dld7kR/Jk564HNReCfE3g3QNLu7ax0+z8C2lveG1ayuY7exRpdit8oRtpOxl4zuHRgCMUDGeJ/i2/hPS/Edzd6LNNPpt/b2Fna2spme9acosJwqEplnwQAxAGeTxXUaf4gn1XwfBrNlbw3VxPZi5itkuCsbuVyE8xkBAzxuKg+o7VxOv+IPAHhjTfGuq6v4ctrGKK4jtNUeewhVtTaTb5fJOJQzOADIRzknA5rsBcadfeBlnXR/tWky2AddKiiil3xFMiFUVjG3Hy4DFffHNLoBgzfFGeGfwcW0bdZeIFh825S5z9jklUlFICYIJBUMxTJ4UE8Vfk+IDyW+lXNtpM/2a71Z9Lma7lWF4dsjxiQKN28MycDI+VsnHSuftNf+HWl634D0+30bTbLVdSt2l0W2SzgjlsomRpGIA/1YY7l+TOWJ9zTPEviT4X6bpGjtf6dpNzZ3OtSWthbPYRri+NwUnlRJAuCJCzPIOTyQWJGa3ET6d8cLTULjxYy6TeG00GZoE8tWNxelJTDK8aOqoUWQFciQ9OQOM2vE3xRvvD3iTUdJj8PNfeVp0t7ZSRXWDdyxhcwY2EK3zjgMzd9mCCc9PGPw91eTxyL3RraOGwlji1ya802ORLsq5RC4UM0mGXADjPQgYINXtT1bwq3irWbSXwodR1SW2eCe6Swgc6htRGe1DMQzkK6Eh8Jj+L5TiehR0Gha/ZeNvC0DXdvbs2oQSxz6XMS2SpMc0TLIiMQGyjbkHuK5SH4kt4b8N+FTH4Zh0/T7ieSyuo7actBpMcUnlZzHEcpngHCKOMsOK2PC2l+GNV0rT/Fml+H1t2XTHsrWBYFV4rbfueBEU7AGZR904bC8kYNcxY6r4RtNK08wfDC4s7a21bylt00yyAsbotEnm4WXaCTIozGWb5GyPlqrakmj8P8AUPCvi3VdZ0Wy8I22mW/hPUVNok9j5O2Zt+Z4o2QeWSwkwyk7gd2fmq14n+JereG9X16BfD0N/aaXFZzK8Gof6ROLiby8CIxYDLtc43ndhRxnjV8H+ItD17XNafTdLexv2KPPdyW6RtfxgvEkoZSS6gxuo34Ix0wQTzHizWPBmj+IfEc2r+BHuJrSKzlv9X/s22mE6SShYjneZH2Mm7lfl8vI7ZnoMyLL9ojUL1rWeHwol1pT2Fxqc19aag8iRQRTTRnnyAu5hDuCsyZyR/CTXo/g/wAXXPiG21Jb3T47HULCQRzW9pdi6iO6NZF2SbUySrDIIGD6jBPnFr8XfAdn4hs3TwjcWd/dafcSC8Sytdy2Uc8qzElJS7R70dyFDZ3g4y1d/wCBb3RZdCu7TTfD7eGYLN2W40iW0jhaIsu/JSIspDKwOQTnJB5BAG7A9zlND/aP0LxDZvLZ6J4g+0DBSzktI1mkXYZGZQZNuFQBjkjqAMniugm+K9pDcXiNpOptFHBazWbpGhOoee+xBCN/HzbR85Tqc4AzXIad4t+COsaJLJZ2egXOnxeWhij0Qn+ElcR+VkgKmTgYUAE4GK25tU8AC/8AE324yXym3t/tq6hHPc27xOx8qOCNwyspbosSkEsMZPShMpy/HyGLxNHY/wBjT/2YNOTUZ7otIbiBSbgOHiWIoNj27KcyjJYbQ1bkXxctZ7zTLIeHtf8At17cS2zW/wBmjZrV4whbzSJCoGyRXypIIOPvfLWBD8Qfh1pnii20+DR7S3+1aTEBqiWtvHD9iImKwkFhLsXyJQV8vahGDjNWLTXfhTbSeG/s9hpVvOZ5Y9IRdHZJYJQwMgRfKDQtllY5CnHzHjmgbH3v7QmhaP4Wh17VNL1jTbeW7a2W2eKKW42ru3TbIpGIjXY2W68dK63S/GH2vWPEdnewwWEGjtEwujdBkkiePeHbKr5eMEEZI4zn04q88S/CG68LS6vqVhpEOhXup+XLNqeitDHPeEEF2EsQ3NwwMhGOvNdDo+h+ENX1vxZYR+EbG2usLaam8+nwbdQikQMNxGfMQjIIfHQ8UgOW8S/tF2PhTx1qXh2/05Qmnq9zNcw3LSObVbXzzIsYj+Z84Xyw2cHdntVmw+Pek+INQtbKTw/rMem39qsjzXlp5RgDXDWxWeJ8EKX2gMu8MHJxgE07W/ib4F0bxhf6NqukR21/a7/tV3cW1uI0txal2nZi27yvL/d5xnJ24xzVDw94x+Dt9r2iLo+n6I8zRCXTNStdLQxp+/eNkWRVzEyygghto3OuCSaEtEDNzxv4s0j4feGoNP0rRdLvdLhinL2ZmEFnbxQFfMXCRyfMGZRsCYHJJUCrw+KSQtqq3OlyzS215BaWkGnSieS986JZUIDBAhwWyGOBt+8c4qv8QX8H+E9Nhi1LwnbarDLcTaj9kgsrcqsmcy3LeayIGLSDLZ3Mz8Akmqcs/wAPI18UTaj4XsLFftcVvqDXGlxSNqLuqyxMFjDtNncCMjcCCcDGaBdSK1/aD0eSXVmutN1G1sbIBo77YrRTE2yXAiwSGWYqxG3BXKgb8kCtjw58VbbxZc+GZNNsZF0vXIbplmumMNxbywNho3hK+oYE7uCvQg5rn9P8UfCe71fWwml6TbXkFqRdXL6UgW4tPs6S8SKhDr5RX92Tuwh+XC1e8Ov8ONT1LwnNoPhvSrmC7gnudH1ey0+AQwGNsyKjcPG5LMeFHIbJzQNnb+IfFumeFvsv9oyzx/aW8uLybWWfJGOvlq23r1OKo+OfFk3hHTYJrayS/uriUxRRTTGGMYjeRizqjsMLG2AqMScADnI1tW17S9BEP9palaacZzti+1XCxeYfRdxGTyOlc/8AFLV9E0TwnJc+INDbxBpfnxI9mlvFcHcWAV9kjAHaeeMnuAaTEZWmfF+K5tZ7y6sAtmNLs9Tt3sZzcPcfaGZBEFKJg71Cgk4O4E7eaq23x005/EM+n3Wkajp9tFFE819Ls2WjvJNGY5xu+Qh4GAKF1Ockgc1Rv/F3wf03UdamuoNEiu7eBbLULg6STmIrGBCZBFh12PF8gJ+UqcY5rS0b/hAbvX9FOmeFrAyzWU5s9Ti0uJBCkLbJLfkCWNh5h+QoB8zDqSKYepU0b4naB43uPDfiTTdAEssmpSaI13qcQt72wZoy5CAq25XAXIDAEMDzjFdN8QPijonw20CbV9Sea6ghn+zvDpyCeYPsLsNgOflQFyOoUZxXK/aPhLBoGjahJoOi29hdXDzWKf2KCyyq4jeXYsZMZBVAXYDHygkHAqfV/Gfwqu7bW7e8h0vU4l1hbXU7WPSWumN+ylVMsaxMWYrHt8wgjCYzxijfQaJ9W+Pvh3R9a1DTprXVnezsRfi4js/3Nyp8rEcLEjfITNGNo7kjrWdovxf8Da1420WzsNIuG1vxfpy3UV2bFEae1UOGEzFgwEZXaVYdZF2gjJGzcj4d6fc+I47jRdLtms7a3XUy+lBfMjkGIUxszL9xQFAPIVRyMCn4f1H4VT+ItMsNI0zRYtWaOK5sxDo/lNHgS+Xh/LAjcD7QApIYHzBjO4UIRv6t480rwx/ZljY2FzqcUseY00aON47eBHWLefmUBFZlGFyRg8YBpfBXxO0zx5q+v6dYWuo202izrDM19bGFJtxcK8RJ+dD5bfNgVj+NbvwX4Hl8LaXe+Fba4Sa82aZHbWFv5VpK0ikuu8qEYs4bCZY4JwcE0zS/iF8NvCXh2+1qzaz8OaOb821zdHTJLKN7nLKc5jXdyrfNyOOtCGyjdftB6bpvijxLotzYG7udJube2hi0m5S5uLkyyRx8xNs8srJNEpyxHzZzgHGlpPxr07XNcfSbXSNWhu1KRGa8hSO3Sd0dkhdlZmBJjdSQrAFevIzz3jlvg7qkGq6Zrdhat/ZUwu72Ox02cSRySyRvuLQx5bzHMTMATvxk5AOHrP8ABrQfHEnmnSLPxFfaUhFneRsrR2SwvhEhcYhHlbyY1CkrkkGn0A67Q/iUNWs/CEk2ly2z+IVk+aOVZYbZ0jZyhfgtnY2DtAODnHAOHq37Qvh/QtIGp6hp2tWtlJJGIJDaq7XELqzfaEVXLGIKhLEgEZGV5q94D0r4e+M9OivNE8K6ZDbaLfywWvm6THA1tOpUs8SFQ0ZJ2nOFPHIroJ/hn4Qure4gm8K6LLb3E5uZon0+FlllIIMjArgtyeTzyaQGNd/FmG2svFlx/YOqBfDxdXLmAC7CBSzRASltoDKSWUHB4BPFV/G/xG8PwW+q6XrGh3utaZFAftQFnHPbTP5Pn/Z9rMCzmMbgNu3tnPFdPffD7wxqQvRd+HNKuvtqRxXXnWUT/aETGxZMr8wXAwDnGKa/w68KS4MnhnSHxa/YRusYji36eT937mP4entRp0EO8KeIYde8PC6s7GfTxCXtzYXirFJA8ZK7GCllHQdCRgivPPDP7QU+o+HdP1fWPCGpacl+0nkx2Mn2gxxRpueaXzFhKJgMQQG3AZXOQK7K58CTw3udF1c+HtMkfzLjTLLTbUxTuTmR3LRliXHBOe1T2/wq8FWtqbaHwhoMNuwYGFNNhCHcuxuAuOV+U+o4oDoUPDPxPg8U+NLrQ7bTLuG3htGuotRuNqpc7ZzC3lqCTtDA8tg+2ME9lfWFvqdlPZ3lvHdWs6GOWCZQySKeCpB4IPpWdp3g3QdH1e41Wx0PTrLU7hSk17bWkcc0ikgkM4GSMgHBPUVs0DKunada6RYW9lY20VnZW6CKG3gQJHGgGAqqOAAOwqwQadRTAbj2owadRSAbigjFOopgZNh4U0XS/O+x6RY2vnXRvZfKt0Xfcf8APU4HL/7XWtUDFLRSsAUUUUwCiiigAooooAKKKKAM3X/+PAf9dF/nWZbf66P/AHh/OtPX/wDjwH/XRf51mW3+uj/3h/OkBk3o/wBBT/eX+Roovf8AjxT/AHl/kaK747HHJ6j9P40+1/65L/Ks3xrZeEp9F0u78WSXMMFjf/aLWW2muY/KmCnDt5B+6o3HL/KvU4xmtOw/48LX/rkv8qo+MNA0/XtD02PU/E8/hy0i1BZNqTQRxXr/AMEMolVg6k4IQYyVHUcVhV2NqZn62fh0JPGH228uYWMe3VmhuLxAiM43iIocAFyPM8nqT8/NbdhonhZ/Gi20dzeXWt2WlJEba4vbmWI2jHaN6OxjkJIGSctnBPY1mat4S0GSbxUD4wk0+SSB4bhRcWv/ABKo7hw8uA6Hb5rAHMu7/ZxWmPB1pfeI0S98S3OpSRaT9huNIk+zKJoXODK4SMSKWK9VIXIIA7VzGw3xFY+DLLxLoFvfqtlqW4/YoLYyxxE7gVMqx4TG/BTzON/3fmqH4a6D4JHh6TTPDcLXml2Vy26DUTPO8MrAMSPtOXwwYNno27IJzmkvPh94Z0rU9DtbfUToa7/3Olxzxhb5o5PPUYkBc7HG/wCQj/ayOKreE/hp4YvvDps7jV5PHMUV7JO+o3lxHJN9oOA4d4AgLDGMEcDA4AADQDNQsPAMkXjDUL+8uWjiu4xqrzXt0Rb3Me1ojCpb5HUlNhhAOQAORiuoVNFsPAYWP7RYeH4rDIZDNDNHAEzkdJVbH/As+9ct4h+HOgeKrXxZ/bHiV72wnuYbi5hmNqYdNlt9rx5Hl4IUKhKzbgR1HNdXptnY6Z4Gt7XTtYaHTobFUg1YSRybYwnEwZgUPHOcbfbFLoBzOn2PgQXfgjSrd7m5ureE6joe+S6mdYthG95Gz8u1yAJTjnAGQMWdV0vwPLpWm6PeT/arO+1Z2tR9smnZr0TNMyiUMxXEit8pYKMBMAYWqFt4F8PRah4IjuvFX26902EHTFnNmJ71F+ZWVljD4C4z5RUMoG7cM50L7wJaWOn6Vpi+J7rScavJqEO1LNHupnlebytpiwQCW+6N5AyzMcsaERw6P4I1Cx8Ust3LHam4Nrqksmo3NuIJFfzCiOXXyl3Pn92QpLHrzVHxfp/w81PVfElrrcs32s2DtqUcVxdRqIdqGQp5ZCiQoIg3l/vCu0HgjN+TwXp/ilfGViPFdxqQ1O4j+1W8a2Up091C4QKYmH3UUYlDHjPXmpNT8JaRNr+s6iPEkthdJA8ksKS25XT3ljVGuMOhKlkiA+clOGIHWl0GaGg+FdItLnSNdsb6+eytNK+yWcMt3I8CwOVk8wqxyzkKgDNkhRgYyc0rHxJ4LvPD2iX0Nwo0y81JW05popozNdyOxDKrqGbLOTkjbznOBmpPDPhmeCLR5rXxdcap4fttJNnFGqwkXLMy7bhpI1AJVFCqFAHLE5OMcfB8K/AF1omhp/b1ndbdZW70/UI3s4y9wrRkwQiNFjG7yUDKihmwSeSTR1/ruLp/XY7PwMfCf9ra6PDsjPepMFvVdpiIzuchYxJwse4yECP5N27vmud8TTfD6LxR4gbWL/U7bUQll/aLNcX8dvGvnL9mIIIiUeZ3X1fPG6uk8GeHtJ03xF4j1Ky1s6xqN5Mkd4N8BMBTcUjcRIpLANjdJl9oUZwBWD4j8P6DrfiXX4bzx15Nzex2cNzo/nWRECxyh4l2NGX+dnKneTkSYH8OExmNpOsfCTSLyK0tJpbSK5sZrL7G8V6tn9m8+YSb0ZfLUCTzxvbGORnbiu3+Hn/CMP4eun8OTzvZtK32ma7lnNzv2gfvGnPmjCbNu7+HbjjFcRo/gL4c22pWlvH4qtNQaXTJ9ItbW4vrWWcxyzStIY5cebu3O6YVsHYAQSua73wPpVhHpN3dWOvv4lfUJC0urvLDKZSqiMAeUoj+UKBgDqDnJJoYdTj7DwL8K7fTWuLLVIIrWAJE15B4jmBj3LsUGUTZG4KV6/NgjnmtWTQvCtxqGvR3/iJbiOyt4I5LZbtLZdIhRi0QWSLayEMudzNuGB0B5wNJ/Zg8P6FaiKw1TUbdgoXf9msyD+78tiUMG0krkdONxxit2X4VR6jeahDc31vbw/Z7WCyWxt18+JIZN8ckxk3rK25ccrtwp49KE/6/AqW2n/De08UHTkZptUvtJisyzyXM0Eto/myR5mJMe58TsH3b2+fk1fsNE8C2s+h6hba9ulWWSWyuT4hlf7U7sqOWJlPn8qiYbdjAUY6Vip8JPBMfic2N3ra3Wsy6N/ZyabNLbrMke6ZzPHGqhlY+dN0GwA4CgCte0+Clha6no1++pXFzcabczXR86xs9s7yBVYkCAeX8qKP3WzuTkkmgbKN14I+Fni/RZlfULTUdMmvXXzIdekMaTuGDQoyy/IDub90pA5PFa+n+EvCWs6p4wtbeXU57u6RbHWIpNRvUwGjG3ZucbPkPDxYxzg5zWL4k/Zz0XxT4bfQbzV9UTTftj3cMMSWwWDcGBVR5OGxvJDuGcHHzcVuWHhCO41PxdJZ+NdRlutQjW0uBatab9NkVMIyYiJWRVOQJNw5BINAGHq+mfCzUfGl3DqVrbzeIpXawuGnjnyf9EO5S5G3b5APzZ28dd1P0/wALfDWPxHpVvBqPnamtvG9pFLrVw6XUXnO6AKZNk4EiscfMQQOnFVfEnwk8AeLPGWo3mpa08+t6hE+lXFoNQjDMGtdjReXjO7Z+829c84xxTdD/AGevDOiarp8drqs6vp0Sl9Phgs4gyG5acMwSEOm6UcshXdsxzzSWwM1/HvhvwHpWkrb+IlvBa3V1c3AjjuLyaWRpcvOCIyz+T3ZT+7UbeAAKZD4c8AzP4luvtt5Z+TdRf2jPcapd2y2syopjaNndRENjKoaLAKnbkjipPHvgfSLrRiviHxje6bDNc3CLe3VzbwsY523/AGVWZAAq7F2EfvB5Y+Y8kxxfDLTNdudbNv4tvL5nvYZPLQWk40+eFAqKAYjkiMgES7jyG+9g0xdSra+DPhff3utWUVxHJNHHm9sZdWn2IogjUTiJpNoxEY/3yjofvZJq5o3g7wJpGueF7XTbi+F1FHcXmkrFqd3JBIrNvmbdvMcmS+SGJJB4GBWXbfs/eHJ21ZINcv5opVFrNDF9l3QSC2SD76xbx+6AzGzFPnPy4IFXvDHwp0vwVf8AhbSrHxZewtoy3M9rpLCzUzxyyFpSUEQbYC4UbNoUY70IbPSbzSrPUfLN3awXXlnKefGr7T6jI4rlfihpXhPUtGtG8Y25vdOt7tZIbUpLMJZtrBR5MYJlIBY7SrAY3Y4yNrxF4O0jxWLX+1rJL37K5khDsw2NxzwR6DrWX8R9J0rVNFhXVdbHh9EnAivjLFHh3Voyn70FDvV2XBGeeOQKlgeX2Hwi8C6lpniPS7DxPrltBNbW18GnuZVTTbYxoI3hMy7eUtwpkbc6gEblNdfpWkeAJfEumRWWtSy61aWzSWgXW7jNxHPuZ5R+82zltjEv8xGwZI2jEq/BW1WOa3Ov6vJYPptvpsdpMtvIsawtvjk3NEWdg+WIcsrbiCpGBWXD8E/DsHilN/iO8bVJLZXeyH2SOWRUllcTJtiEkYEk7E+WVXO0Y6g0L1L1v4Y8Bada6DaW1/fTQ3l5MlhcQaveTiWVv3ksTTrIcoxjLGN22lgeM1am+FHgbw3aanLIj6TBqMsRnmOrTwBXR2aPy28weUQzvjYV+8R0rL8LfAXT/C2kWVhonibVLaztNVbVgsMVmVefYIyp/c4C4VsgYOWYk56bPj/4O2PxK8P6jo2tazqk9leXn2sR/uSIB5Xl+SimMgoOXG8Mwds54AC2GF74S8Ex6xqz3OpPDfSWcS3UL67MnkQRENE6x+biLY2CsihSCxOfmOVsfCfgmx1bT2g1D/iYCSCeCNtaldpn2zGNyplPmFg87ZIO/knO3jCvP2dfDmpavqt3cajey6hfaeljLII7ZZBCPKGGKxAurfZ1yH3AjcMY4CeG/wBm7QvDHiLwvrVvquqy3fhu1FjYrMttsEH7zdGwEIznzB83DLsAQqGcOC6HX+NNE8MahfaZceIbwWzrIIraGbU3tobltyuEaIOqTHcqkBg36msi8+GPgPxnHqthKv8AaY+1PJdQQ6tMxt5HDh1AWTMIbfLlF2g7m4qPxF4G0WI6B/bviuf7ZC7W8VxqrWZkvg0qyeViSLbkFUAMYVsKOc81pfD34T6V8N77Xr3T5ZZ7vWpxcXcssUUZZgWIyIkUE5dssck+tMZkRQfD8X3i6wl1S4gkQQQavFqGpXUUcRKDyWQyuFU4QYeI5+Uc5p48K/Dq71ANHdQXl8dPMbQw6rJNNdW/ln53RZC0x2OSHIZuQQelYPjH9nM69c3uoaf4p1CLVL69W7nOpol3akLcQzIqwMoRdhgUIQOhO/fVrQfgCNE8Z3usrrjLbvHAbaOCwgSZbhI5F86STYQTmViEQIg6FSMgroBt+E9H8DwR+H7rSb25lkv7mXVtPNzqd081zK0JSSRllfc4EfVXBVTg4DYNdanjHQn80LrWnMYpxayAXcfyTHOIzzw5wfl68Vx2i/C6GGLw3Ha+LtRvP+EauZdjGOzdnZgVeKUrDlcK7Lhdp+bJ5AIx9f8A2ZtA8RaA2jXWq6iLPzFaPyobRTGioyIvEGHKh2w77nB53dcnUD0OTx54cjXU2OvaYf7LO2/VbtGa1bONsgBypzgYPJJxVu88T6Tp9w9vdanZWtwkBuXhnuUR1iBwZCpOQueN3SuR1X4Q2+o2niW2XW7+0h19NtykUFqQrEKJHXdCcswUfe3BckqFzVXWvgdYeIGumvtZvpmurXyJ2NvaEySeQYDKSYepjONn+rzzspgd/ZazZalpy6hZ3UN7ZMpdLi1cSo4GclSuc9D0rmvD/wAYPB3iezS6sddt1gkkEMbXqvaea5AICCZVL9R93PXFULHS9c8EvJpWi6QdW0y5uHuWvZL2C2a3MjEsqRLFgheozyc81iWP7OelWXh600ca3fSWlms4ts2VgDCZoyjuoW3A3nJYtjJY5OelID0Sz8XaPqHiC50O21G3uNVtY/OntYn3NEu7b82OFOex59q2K4Xwn8J7Hwh4tutdttSvJ5J7d7YWs0cAjRXl84nckayMd5Ygsx4Y13VMAooooAKKKKACiiigAooooAKKKKACiiigAooooAKKKKAM3X/+PAf9dF/nWZbf66P/AHh/OtPX/wDjwH/XRf51mW3+uj/3h/OkBlXgzZJ/vL/I0UXn/Hkn+8v8jRXfHY45bkll/wAeNr/1yX+VZ/jHwVqXjnQbGxsb6ws7dbwyXsd7Ym4+0Q4IMSsHUx7sgFhkkZHGc1oWf/Hlbf8AXJf5Vh/ETwrq3i/w3ptjpen2V6n9oCS5kur17eS3jAPzw7VIMucAFuFyWGSAK56mxtTDV/hFeXzeJjDe6ZjUoJ4bVbnTmkEfnSLJI02JB5pUqPLI27R1zWongbWJvE0epT6lp9vFLpH9m3T6dZyQ3bvwfMSYyHaAR8oKsQCea5jXvhlrd7L41eOxtLs6pBJHEX1OWJr12kVoWlIQ+V5CgooXduB7dK34vD/iOTxp/akdla6WbrRVs7i/GoNcvDcA7lxAyBXVTuG7K53EkVzmwX3wqll1PSJ4dYku4rUoZ5dVQ3N04jmEyCOXK7MsNrZBynAx1qDwp8Kb/TdDe21fxBIupy3Zu5r7w9EdOWb5FRUaPc4CqqhQAegHU5Jj1jwD4ivNf8O3lzfQa1NZOrNqLsbR7XEodjHCgZWMsYMJyRgHPPSq/gHwJ4r0jw5PE13ZeEtTub97ue308nUbYoVVQqGUKV6ZZiMsxZjjOA1uA7xN8Hr/AMVW3iuzuNTsbSx1e8tr6COytJYX3wsrbZ3WUGRX2AMU8tuTgjiu1t9BurXwXHor3MGoXiWQtjPfwGSKVguMvHuBZT3G7JHfvXnnif4eeKNcsPHOn6csOjW+rX1vdxTw6kzyXaKUE8bBoiIPMRCucOo3fdIrubPQbm2+HEOjXVpa3l2mnC1ktIJTbwyN5e0oHUZRT0yB9AOlIDm9O+FOqQX3gy9n1axS60G2W0mnsrWaFp41PCKPPKhWGAwdXxyVKk8SyfDTVItK0m1s77SFnsdbm1Yz3FhNL8rzvLsTdOWRsPtZtxB5wijCjI0/4eeIzrPw91Oe0tLS60SzFndn7f8AaI0QfK21WgBdnUDDq0ZUk7gwHK+Kvh74n8R+F7CxcpPqkGsz3kd5Pq7MbaM3DPCwItwHAjwvlgKyDhZCRvNAW3+EuqXmmeMoL7VdLmutdlX7PcRadLCtvAsrOkTrHOpfG4/MrKWZmY8EKNjVfA2qX/ibXtQiuNFWy1LT0tFgn015JDIhJVpWEoEi/MwwApAxhgRXLD4Z+K7DUPH17pt+1sdXZDYRJfiGQv5zO0rzCF9h2tsA2PhQF7A1u614U1a78U+Kp4dGtZtN1TS4rfzH1aSJ7iVC3ysgjPlAq5XcCenKnNS9hk3hPwb4i8KafZaHDf6ZJottp1wrvJbSPJJeSSlk4aQnyUUsCGZnfIy2QSebf4C3uoeGNK07UtYtDqMN891falp1pJatcK5QuqIsu1M+Wg7gBFwODnc8D6L4n8PaDpvhSa1jitY9LuDJrK3fmNbztKRBCihF3lUYlmARRtUKoBwvL2/wj8QppWnQrbWNoYrwyxW0eoyumnPiEfa42KfvJCYpm2EDmc/N1y9mSjvvBngOfwv4l8RatNdWsh1Vo9sFnbPEqKhchmDSON5387AikjdtyzGsXxd8K9S8V6t4jmkutGFhq0NlAIZdNkaZVgm8w7pBKNxbcwBAG35Tzjnd8BaLqWiX/iZbzTYNPsrvUmvLQw373LSBlUOWDIuwllLbQSPnx2rivGfww1PXvFHim+s9DsoP7Rh0+ODUotVeG53Qzh5H2iIhDt245OTEoPB4TGNsP2dI47lPt+qR6hEmkXOmrcfZminEk000hmIEnlMR52OUzlcgjcRXdeDfB1z4c0/U1vJ7Ge91CTzJVsLM21qmI1jULFvY8hQWO7k+gAFeTaV+zzrCapaT3ctpb3NppNzFBf2FywRb2S4nkSTyym9dolQgrIMEEbSApHp3w38KX3hfQtRt5rO30mOeUvbaVZXj3EVqNgU7ZWUHLsC5woALdzkklqHU810X9mPUdE0h7GPxJa3UUgQywXNvdNDI6ptDEfat3ylndfm4Y55xXT3Pwov9SuvEKhLbTlvLe1tzdyzyXB1Ron3GS4jUoVDD5SobJBPOODzGjfDv4tafpD2974iuNRaQRs4Ou7ZQwTGFlFt8oDsWPy/MFUHjiukuPD/iy8v/ABH9guNWjuZbW0hknu7sQQ3EqOTL9kYBzCrIWG7bwW4GeRQnv/XkR2/wFuDqn2y414gJo0en24tUkjME6GfZMCZCWVVuWVVJ3AKvzE0th8Dbm3vfDUs97psltpVzNO9nFDdRxgOUKpCPtJ2hSm/D7xvYkAcCs2L4SeL7nxemvT6hBbX9vocdvb3onE0xu1NwAsjGMZXZNGGcD5zFkr0rTsPBvjsXvhkXOo38en29zM95GmvCSQREoY0djb5nwwdv4DhgmWANA2Zer/s439x4Ofw9pPiG10KBNTfULeSzs5UcEhtrSMs4ZpFLA5Uqp2jK13Fl4P8AE+n6v4t1CDWdIgn1iBBaOulyMbeZE2JJKDNiUdyo2E9MiuH1f4f/ABRt/B0mmaFrzw6lFqb3EeoXmsyTyzxYbYGLwkJHkqGiw3APzV12j6R4p0TXfG9/a6HpaHUUS4sEk1R9k9ykez96BCfKDYGWXccDoaA6mH4p/Z+l8TeMdU8QHxPc6e9/bPCYLSDYIma1MHmq27IcE7tw5wSue9Zmg/s5X2jav4fuzr8DLpcQhDGO6knUC5ac+VK9wduQ2zDBgFLAYBxR4p+DPi/VPiFqniHSdX0/SoLhHmtUy7yQXhsjCs/K4JDnGDkbecZFReH/AIbfEqx8RaFfXetyztDbpBd3c+qgu4W5eTEkSW4WcCJyi5KnLZJOAQLZDZ2Xjb4b674zsPLk16xivVku4o7j+zSVitZmG1VUyH96iqqlz8rDflAGwKOofCTW9RHiGObWNLkttSure5jgawlUSCJBGEuds480Mqgnbs+YDqPlpPif4N8U+PNHSL+z9JaaGe6jht5b6QwqpIFvdN8gzIFByn8JkO1yVBNVvBnjO3PipLG1ttOiv76C6SSx1ZoZbpVjWOX5jCfs7OVD5G7uuQTupE9TPh/Z51O3vdYuE8SwRy39oLb7WlpMLjH2VLfy3YzlWjOzf90Pnb82VzW14P8AhN4h8KN4OjfX9Pv7fQFuY3eeymeeWOZiQiyNOSoRdqjduztH0rn7H4dfEvT7/X54NWjilvrf5Jv7UZomk+yRxE+R5A2S+ahfzQ2OB8vzEVr+EvCPjnT9T8E3eu29nql9pkN3a6hqr6mfOeGR/wB2NohAkKqqE52/MDj1LGz0jxD4bPiH7LnVNS00QOX/AOJdc+T5nTh+DkcVh/FXwFd/EjQINGh1SPS7VrlJrtjaJcPLGoJCKHyqndtOSrcDgAnI3PEWm6zqItf7K1oaN5blps2aXHnLx8vzEbe/I9aw/ir4Xv8AxZ4cjtLK3t77bOJJbG7mMUVwuxlG4hWztZlk2kYJQA461LA8Y1H4AeObvT/Fr3FzpN5ql20QtrhLm5ga92pbq7SkSERRlonk8tBksx+cZNel6H8MNc0PUfD88eqaSbXTba7hktzYTH/XsGKROZiUjTagCnd/FyOMZGl+BPGmktqMdrb6faTT6FZWLalZ6i6PNPDndhGify9yuY1k3MV2hiD0FTS/h78RLLxdFqi6gkSNaRRM0urtKu5HnO2ePyB552SRIJNyEbS2Mjmmxbl+L4H6pJ4a0LSr3VtLnj0u4meOJLO5SBY5JBIpRRc7hLGQyqxYjaxG2s//AIZ0v5ovESX2v2mrrqOpw6tbQ6haTSQw3CNJuZ0E4BDJJtITYPkU89KXw74J+I1lpvhsa6ln4i1PS9be8S+udWKzR2jRbDHlYBvO5n4PYL83p1HxQ0f4g+JvC+pWXhq5tNA1Jb4fY7y3vWEklsIwQzkxEI3mnDJhwUXrk4CvYa7EOo/CzWb/AFLxPJ/a2mRWms2lrC0UdlMrPJAeDKROAyOpZGVAh24G7g5qeHfgpe6D4n0rWhqtm01ksMRCwXAxCon3wx7pyFQ+agXIYhYlBLcYz9U8GfFO/wBb1y9h8QfY4LnTFtYLNL8GKOb9zuliAhBjcbZsElhlxxjgR+GfB/xZg8WeELzWddhm0mxtI4NYtYtRJN7MBKBOAIABgMm5OPMJBynl4kYuh2XxF+Hdz431nQrqK9s7SHTpfMZ5LaR7j/WRv+7YSKmDswVkRxnacArXF69+ztd3/hXU9C0nXrXQre41OTUIpLOzlSQFvMIMjicMzq0gIKlR+7GRya6nxHo3jjxB/YE/mxaU8Tsb210rVmiRG80bH8xrcmZfLBBjKryx54DCX4X+HPGGi6p4nu/FOryahBf3QlsLV7kTraJlyyoRGmFIZAAcn5etAzB1L4DNrk3iyTVLrTrptaiiETG3uP3Tx+WTvU3BVlZolYhAhOevGaivfgJfXviW31j/AISWS1kTSTpvkWf2iGCD906fuYlm2+Xlgdr7myud2cEcx4u8FfErRtX8Tazo1lGIdc1GFnttA1BobxY454Qrl5AU+eHzw+1AVLDG8gEavh7w58Rx45vY9QbULvR4LSEbb/VEazuAYZA9uqiLMjE+UGmbbggsF5IY6Bsdp8N/hxrHw+sVs4dU0xbOXVZr+6trXTpVRoni2iKIvOxQiQK247gRlQozkeihhivIfDXhXxno1l8PoDp1rEmjNLDfwxa27wmEoUQhTB+9ZdwYZK42kZO7NYmt+BPi1JoFxFpXiA22rNeJN9on1fesm1X+ZFNtiKJ2KlosPwuARjlXA95yKN64615BrPgnxq1l46hs7ie5bV1EmntN4glQW7ttzGi+SwiRDuzjdvBAwMmneJvDPxF1i8vLmxvG00z6cY44rfV9sdvIYdvlhfs5BcS/OJ/7vy7McEA9dG1u1GQPavM9E8VW/guwbw34p1My6q8sotFuZpLqSaB3Ii8yURAbjyD6ADk1594P+DHjfwj4RsbDTgdJvrd5p55LTX8C8l8r9yJMWoGxXAXGMlRlixJyAfRu4E06vLfA3g7xbpnxN1TW9bnW5sLize3R/wC0TKN3n702QeUoiUIdp+ZuVz3JPqVMAooooAKKKKACiiigAooooAKKKKACiiigAooooAKKKKAM3X/+PAf9dF/nWZbf66P/AHh/OtPX/wDjwH/XRf51mW3+uj/3h/OkBk3efsSf7y/yNFOuR/oafVf5Giu1Xscktx9p/wAedv8A9c1/lWH8RG1x/Dem2+g2utTXU2oBXudHmjj+yJgkyyhyDIo4wg+8cbvlzW7a8Wlv/wBc1/lWF8RfFt/4V8N6b/Zl1cWl/eagLeJotMe8jPBJ84rxFHxkv17L8xFY1NjaBm69a+MBL41aIeI2DQSC2+xTwjzJfMU232QMw2AR7hLu25J4J61vRah4il8aiW107WEgu9FBVdS8pbC3ugdyqwRi6ucsGIDDoAeK5/XvHXiSxl8bFb6S2XT4JHhA0aSYWjrIqwKmB+/M6EscZ2HqB0rfh8fXMvjUWlrJLqdtdaIt9aacunyQEzA5wbhwFBdT91tpXb0rnNCtrEPjeTX/AA7JcJKrI6mQaJMPsKgSgy+eJNrtmDIQAHD+nWq/gFvHT+HJ51s57O8nv3f7B4uufMlt4dqgBZINwYk5bH3V3FRwATPrPjPxPH4g8ORPYTaIty4Emmvbi7+0DzQsu6ePKxCOLMo5G48c9Kr+APH/AIh1zw5PqUGnXniZJL94oBNbLpNxDCFU5kilI43Fto+9tK7uc01uMp+J28cy2Hjmz0CHWIbiS9t5LS8vRE6i2JRbkWgWRTkKrlFYockHcCc13NnHqA+HMKXsOoQ6mNOCyx2Uwlu1k8vB2O5IMme7E89z1rhfE/xJ8RadYeOYdGB1XU9PvbeO236dLDHZ28hRZXLbWEwi+diUDE4+6RxXdWmrXU3w4h1O4uZtPvm00TPcXNp5kkT+Xku0KAZIPO0AemB0pdGHY4rTx4xudY+Ht6bbW44o7MQapZ3rIse/7skszJPy4A3KNkgbI5U5Id4ob4kXnhbTZtMZor6LXmN5btbpDcTWS3eIwuyV0CeUAzEnc6jojEqKkHxM8T6jrPw7itbSd9H1O1WTUb5bJ45JbncEeHy3T92F+Z23bPlHyscYNzXviB4kbRNPu7OMWVw+o3tsI4NPuJhcvFOUggIkjRoxKASZduwbcq5UhjX9fiHQuTX3iq1sPHaabZ6617HerLpU17Bb3AkRggZYEM0YKAq5AdkwCDknirGtyayPE/iy3it/EzafPpKG2uLNoPLSddwK225gVchl5YYJB5GBWPafEzWTaePtQtXfU4NJuVhs7e/0m5tmDeYUfasUbySxYxtcIxYhm4Qqa1tb8aXdl4o8W6WurtbrbaSl3aN/Y80q2sgDBzuA2zHmNtgOeQMHml0Bmn4W8U6lcwaNpF1o2qW+qyaP9quLu/jTyoJVKxhJWVzl3bcwCE/KpJIyM+e2tn8Tf+Ea06PUJNVm8QQeIZXaeyMa201t5iHLhnUrEVMmwYbaBhkY4r0Pwt8RtO1qz0WylupP7bvdI/tN4jZSptRCqSO6lRs/eNgK2CcHGcEjgb34l+KpfCHhi80Wc6xqEmpS2d0jaZJavdlZQE+SRf3cZjO4sOfu4J+al1/ruI7H4YWvie21vxW2vzX8trLeF7MXgQIg3ycRYdsps8vnCD/YByTzvjOy8US+KfFL6OPFkG+HT/sM8M8T2ayCceeY4mkGRs2bgQMgSAcnnpPhf4svvFepeKWnu57nT7W+MFoLvTHspUALBgFblo+BtY8nDHoVrmfGnjjX9K8VeKbfS9ckb7HDp72ljNokjwB5JwsymZUy427ckE7fMJP3eB7DMDSvCnxMn1W0abUdc0+5t9JuZ/KlvRPayXpuJzDGZN+CAhi4aMgrtGVKkH034cQ6zbaDqIvl1eKHzibGPW5Y5r9V2DdvKMVIMm8qCTxjoMAeY6T41+JmoaraJHPKrxaTdalNpt9pPlSyyJcTrFBwmCSqRg7ZA3IYAhuPTfhv4g1PWNB1Ge8u5NTigmItdTuNPexa5XYGbMJAICuWTIAzt7kEkkD3PN9G1/40JpDjVbG4M7iNhNbaXa+bF8mSoj+07Wy5CsS3Crkdcjo7jxD4vlv/ABGmnXUt/dQ2tpvtYdPG2wmLkTJCXKrOwQlhluy5J6HmdG+P/jC70d57/wAK2unzsI3jlMF+0KqU3HcPs4fJJVBgcHcT2B6zUPifrtjc66RbadcC2s7SeG1iaSWSxMkhWT7UqKzZXOSEHRDwOTVCe/8AXkYsNr8TLvxcmpqLyBLfQ45RDcuFtbm6BuFMRgWQqrsGt2bJwpUhW61o6fq/xGnvfDMMy30NnNczLe3U2kW+/wAkFDGZVW4xESfMX5A+VAOFJrNh+JXje98XpJbWEkumw6HHqc2nC1KRytm4VhHK6CQsxS3ZVxlVk+ZcmtHT/i74ivr3wzaDTtN/4mlzNDLdNFfJEVQph48wZXO5kxLs+ZCQStA2Zura18XtJ8HyLp1lc6x4gg1N1ae6s7VI5oAGKrGiSjKN8g8xipGTxXXaNrWu6drvjeeTQPEV9aIiXen288kG2d1jw8NuWl+XcwGA+1c5ORXH6t8cfF3h7wdJfz+G4tV1m31R7Se0srS8jiSJQxIDNGS0hCjbtDKSw5rr9G+JMceveOEv7m9vLDSUS8hWLSJ96ReXmRE2x5nIYcBcsd2MGgOpyXinTPiovxC1S80FJ20TY9zZR3d8PL+0fYiEjeMNzD5vG3j5wDnFQ+H9S+Lj+ItClv4LmSKW3SO9AsIYrRmFy/Lhpy8TCA5LIGDELwOhl8U/ET4gaP8AEPVLXTNHvdW0K2R7u222IRJ8WRkW28wjIzJg+ZycjZjNQeH/AI2eMdT8RaFFdaFbJBqFunnWkEN1JiT7S8ZMU3khQfLxIyyEbQnBOchLZDZ03xPuvFmtaPG2jaRrtk8M91AtvZ3UUEssikLBMzqzYgYB2xycsm9OCBUfU/G9mfFUdlpmuRk30EkFxcJBdBYvLVZvsitKAw3qSFfaArFgCflq18UPiLqNlo8dz4ee/tUjuLq3kkXR3llluIWCrCqSBRsc7yJOFYINrfMDVN/ivq1gfFcaCS+nsb6BIje6bcRRWcTxr5m4xxkzKkm5cpk5IycDNBPUy7LVfi1a3+vudOu5/Mt/Nt7eeCD7OshtI8tFJ5xbcJw37krtxu+bkGtbwlrPjm51PwTceIdH1mO8MN3b6sbZYo7Ll8QSyR+cSGIUN8uSNxHHQZFj8a/Fiahr6z6AbmKC3+029otndLPGfskcmS3lCN4hKzJkN5nP3flIrW8JfF3UvEOqeCX1CGfSX1WG7hvtKGnzyRpKj7YpBMYwUVtpI3YBDA+9MbPSvET+IB9lGhR6a/zn7R/aLyLhePubAcnr1rl/jTD4lvfC9tZ+Fbe/fVZ72L/SLG8W1+zouWZnchsqcbdoVs7hwOo6nxDrGp6X9l/s3Q5da8x9svl3MUPkjj5jvIz+HpWF8Vtf1Lw/4cS406eWyLzhJryG0+1PAuxiuI8EfM4RNzDC78n1qWB4xqHxf+JH9n+LdQSzv9OOmtCotJtCWUWxZLcsiMsubiQO8q8AJtAJYEc+g6Hqni8+I/Ds+o6br0kcljdx3UsccMduMuDbvNCJSFmwrZ2ZHzAcZwKOl/FfWoJNRW4S6vL6PQrK+WwudLlgFvO2RPueNXDAKUkZFLsBkLk1U0r4y+KJvF0VtNo4utPns4pvJgsbtZJG3zq727mIKV2xxyFZWVgGAHJGbuLcu2uufEefwzoSpYapa3/2qeK9muNPtpJpf3gMLNH9oCJE0bNuZWJUqAAB1onW/i5eReI/OsrnTVttThmsWsrK1mmmtC8iywKJJQrlQIm3nYSCcZxR4e+N2sa5pvhu+1Wzm8P3EmtvYXllDp1xcRXFv5WVlDmINGAzoN3TIYZPbqvij8Vrzwj4X1K/8PaJc65qNjfCxktZrWeNCwiEpKsEJZSpVVdAyl225yCBN9RrsVtR13xsmreKYrPS9UMYs7R7CaW1t2jjcHFyseJh5j7WDLuCgspGcAZr+HdY+IzeJ9JbU7W6bSGWGKeI6fBGSGE+6Z3ExKMNkBZFBAMhA3D7udqnxw8Sw63rkVj4UFxplppa3VvOy3Ik89hDhJVMQAT962WUkgRk46gR+Gfjv4i8QeLPCGmS+EpbKw1e1jlv7ySC6xYTkS5gJMQBLGMFWOFADbypaMOxdDpvitB4lu9c8MpoA1hYo7gSXH2FkS3dfMjys0hkVl+XeR8kikbgQDtNczr2r/FrSfCupppVpc6xrsOpyCGe6srVIntx5hjWNFlBZWAiUuxUjcfQ10/iT4oXsZ8Py6DprS2epSMpm1SzvIWJWURmIRpCzo5+ZgZAFIXrg5E3wu+IGteONU8UR6losemWGn3YhsLiMy5uEJfO8SIm1gFUkDP3qEMwdSvviTqM3iwWUl7paQRRSaWh0q2Yv/q2lVHach2GJVAdUHPU8GorzWfiwPElv9isYf7FbSdyx3lnGZ3ufKc5lZJgkb+YEGwblIOMgnI53xJ+0BrXg/XPFBmgkfSvt8Vrpd1rOnSWtom2aKGcCWMM8mDNvXKDcImCls5Gpofx31fWPGFxoVzZWNrHFaRzzSWi3MtzEjwu/wBo8togFQeXkI+HYOvy54Y3QHVfC3VfFltYtF4i0zWb2a81i4VLu8S3hNtbeUHjkdFmbCFgUATJ3MCVUZI9LxkV4/4b+LV7cWXw+F5K851ZpbfUZH0q6hl81UIRtvl7YlL7QdxXlhg4zWLrfx78VaP4fudRj8JpfzR3qQmzghvQ8SbHaSJyYBmYbVUGPcrFu3GV1A96IzS44rx7Wfip4h0qy8dvJbWiy6Uok0sRafeuZYm2mMuRGQzsGIATOCDkAA0vib4yatp15ef2To8d7ZpppvLbz4LxZJv3PmCU7YSBHu/dFeZN3O3HBAPX9vP3jS4wK5PwT4lvfEfhi5ub+KOz1C2mntpjbRS+UWQkB4xIqsykYI4wexNeN+D/AIyeN7fwjY3+oPb63fTPNLeRT6XeW5too4t4RNluN8jgdCBtZtuWxyeQH0hjmlryvwN8Rdd8TfE/VdJvbIWWlQWbyQxfZZ1dJFn2/vJXjVCzIVYKjHg+2T6pTAKKKKACiiigAooooAKKKKACiiigAooooAKKKKACiiigDN1//jwH/XRf51mW3+uj/wB4fzrT1/8A48B/10X+dZlt/ro/94fzpAZk/Nov1X+Roon/AOPRfqP5Giu1PQ5Jbklt/wAesH/XNf5Vk+OPH7+AfDthNbz6Ul9e34tbe11OdojdMQT5cW0HLkDqflUAseBWtbf8esH/AFzX+VVPFWu2/h3wxFe3Ohprsa3YTyWeFWUk4BQSEbnJwFVeWJA96xnsjaG5iax8XtQ0+bxaEXRIxpNvNPCLq9aMw+VIqMLk4+Qybi0YH3gOvet//hZEKeLX04zWF1ZvpA1S2jsLjz72bDfMBEv3lIIKlc5waztU8e2iyeJF/wCESe+WCGWdeYP+JitvIscxIY/L5bMMb+SBxW2+taXpHiSaK50aLTbez0wXiaxIsSoIgdrRjHzLtBXrgc8dK5zQxdT+K80WtaFBbWQtLW9ZBLBrCyWl5LvmEX7mJgM7M+Y5P8HPvUXg34wDXtBm1aW3XWrNr57W0vPC0U19DKgUHccLkAEldx4bbuHBFX7z4l6Lf6no76daR6/ZSsobVbZ42S082XyE25+Zi0h2nb0HJqLQPiT4f07T7uTUre08IRx372arJNCYp5AqklXjJUsAQrD+FlI7UxkV/wDEPVJI/GVvp8/h/wC3aBOrbZLp5Att5YcmVEG5ZPvDaOOnJrpNV8RX+ieApNau7OJdShsVuJrVZD5aS7QWBbGdiknJx0BNY974nfTYvE91ZeEfMvNOuFSbM1vD9qhKCQzmQnhQCeG+bjpzW5e+Jo7XwQddvLCZEazW4ewfaZAWUfujztzltp5x+FD2BHJ+HPipPqereG7K8m0WNdU+2Qs8F4S08sLlVe3U/fiYKxzknkemah1v4xSW+j2WoWNvYRpJe3lvIt5fxuJRbTGJoomhZlM0hB2oTkYYMAwICW3xR8Of8JD4S0W60NbLXdQmntY4DHEwsGhMisBIOCC8bABOe5AFafiXx9p+iaBaasnhu9vbBNTaCUyWfkNasspjafZIA2N2SHA2kHduAIJBGUPjTLZL4rub20s5LXRx5iRwX0cLxr57QbLh5mSOOQld4BYDaccnGZPEHxZu9P8AEfizS9Nl0LUH0TTTdNCb7y5bechDHHcFtqKH3k43DaApYjeKt6d8S9KvJvFyzeHb6CDS5QJmhsGuHv8A940W9I0UtJhkPQNxg5HIEuveN9I8M+IdbTU9DWK3tdNa9uNTiEUzSRDaCrxqTIA2cLuGG2N2XNJvS5Ro+DPHVh4k0bTLia7sYtavbWWX7MJFRnWF9krKNzExq5A3AsvzA5ORnkrj44XFp4a8LX4sbTVJNU1gaVe3el3BnsrQ/aBCT5g5LNuUqCBnJyR36zwPqGieLvDml+MLHSIbaW704RRjajSxwBiTACvy4DA8KcZArj7L4s6Umi6DjwbNbNf3/lTacluA2nsDHiSVCg2tiSM8gDH8XTNPexG60N74bfE+fx94i8UWUlmNPh0q6a3ghkB891SSSJpH5woZoyVUhTtIPIINZXi74r6t4b8R+JLO3k8O3kOlw2EsVk96YruQ3E/lFHydqng7eOS6A4zXU+DPGFt4k1bVYotKbT5F2zpOxQm8i3vEsp28g7onG1uQAPXAw/FPjCPQNb1/7T4IN9bWEVpNLfQNBJJcrNLsGIz8xKlGOD/cGMkipuV1OM0r4/eJ9UurV7XStIvrEaZc6tciCWRZRFFPPGFCsdyswhGMoQG3AkYGfS/h/wCNbnxTpOpTXT6bdz2M3lm70e4MtnP+7WQbHbuAwVvQjPfA4a2+PVo+pWV2PB07Ry2FxevqUEsUnl20U0qOQ4GDnyi4XcCQwwCQceh+DtfXVNOvrabRG0K70+Ty7jTAY5Am5RIpUx5VtysD65JHuSQPc810T9qnTda01rhdCntpzsaOG41SzCupQyM3mCXYuF24yfmLYHQmulufiZF4en1e7fw39jt5Le1vLa4E0MTXxmfyw0rEgRYJUEueOfYVS0v4xeAdd06RrXSb6ZQUAs20CVZXG0vlYzHkhVAYnHAK9yBV6LxP4P0/VfEVwNGuy9zDbTTXDWck39prKxWNYFOd4yRwvGW6cE1QmYY+Pl5L4rWCHS4p9Fi0ePVrtYWMtzChNwrtvU+UVDW4AOcOJAQcVrWXx0iv73QrGPRTJearcS22yPVbNljaPYWKt5mJRtkB/d7juBUgEVA/xl8PWHi620/+xfItX01LhtRKIksUJ88GNoMeYAjWzqwx8p2jBrVt/HnhQzaNbx6BqEd1LNJBbW40KUSWkilWYOAn7nh1fJwCpyM0De5zeo/tNWGgeEjreq6M0Esd+9nNp9rqNvcSwogYvI5DALgITsYhq6/Svifp8mteMbbVNX0a2stAEdw1zHeqPKt2j3M8+ThNpByemMVkXvxd8FWvhRNc1fS7vTdMudQMIXUNJZXkmAOZtmCSoCnMnOAK6jQ7mx1DXvEdidChsJbN443uNkZF5HIgYNwM46gq3pSA848UftC3Xhf4g6poUmnQ3tjYK92ZLRZHllt1szPtT+EzE4wPu7ec5GKk0b9pSLVPEGkWcuhS2UGo26SeXNewC6hc3LW/+rDnzVJCMPLycbsgcA6XiL48aH4X8a6h4f1TTvszWAea4ujIjBbVbYytPtAyR/BsHzc5xjmk0D4v+CNQ1TS49P0a4htZoRNb6gukskduxneBlk+QGE7wBuOA2/gkAmmtkNl/4kfF6LwxpiXWi3ukXipJdJPcXM7vGsluQsluoiDMZtxIKgErsfg4xVf/AIXbDZHxEs/9nX0+n30FtBBaXqRELLErj7QZWAhIJZSTjJAAG44rZ+JPivT/AAZp8Rm0ODVlPm3skckkEEUKR7d8rPKQobMigdyW6gAmq3/CYaFEmuvfeHfL2XcVqEtrVLqTU/MjWZGVYwS2QSSD02k9OaRPU5iy/aWsnvNbW604C1so/OhkhvYWlbNrHcCN4d5dT85XzMeXnbzzmtnwr8cLPxdqHg9oHsbKz1+G7VrO8ukF7FcQvsKhVYq67lccc8Cks/i54PmutZebSprSG2iKnUH04+Rcx/Z0n8oSbcbzG3+pb5vkxjpWj4d8X+HfEl74Xn0fQ45dN1SC4ltNR+zpE1u8LYaNo2AdTndyOAVPrTGzq/EXiaHw6LUS2GpX32h9g/s6ykuNnTl9gO0c9TXN/GP4iSfDXwtDqVs1k97NeRW0Nte+afP3ZLKgiVmLBQzcKR8pzxzXS+IPF2ieFfsp1jU7bTftLbIftDhfMbjgep5FZ/jzxDD4a0+3uf7LXV7tpSttAzxxhSI3d3Mj8IBGjkn8O9JgecXH7UOlLDqlzaaPPqFjaLG0U8Go2mblXSGQOEMgKJsnUl32gFSpwcZ6HRvjFFrHiLQ7Nn060g1K0u3NtNfI1yJoJAp2FWKSRMC2GH90+hAwbODwDq+meIHvPBttBpOq2NlqtzLbbbkah5zbY4wISSWEkSqFUlWO0jNbFh8TPCVx4gj09tCns1t7eIx3sumFYrUO8sflStt/cMHiddrYyTxwc0xb7EMPx+s5PD2jagllDd3GoTXEUkFvqtqsdv5MojdfNeQI7/MpCqcsCSKoH9paxuo9bOn6M9w+k6lDZTG61C3tYmglaRUuQ7thV3RMNrYPI9a2vD3xC8MeJNO0G68P6Kt3pV5qzWTObVbc2VysZZXMTqCchR8y9iD0rc8e+I/Cvw48P3Wr69aww2E0oScxWYlaVjlssiglsYLHg4xmhDMm++M+n6fqPiK2Zbad9LtbO5ijg1CBnnFwxUM2WHlIrbQWfAAO7OCKraD8c7TXPEmnaUdLe2jvBGhu21C2dUmfztsYVXLOCbeTDqCpG0jIJxJq3xW8B6Z4g1qyuoCb+304311L/ZbFZ4CI/lWQriQnzIxsySc4wcHC6P8AFXwJquv+G9K0+EyahrVol7pYTS3Ae3VWy4bb8qx/dbONhkQHG9ciF0LPxO+I954I1XQLS0XTZVvpwtwLu5CzLGZI0zHEDvfmTqqtggAgA5HN6z+0lZeG/C+oatq2jNFNZ6hJZSafa6jbzzhUMm+RsMAmFiZtrEE9q7zxZ4m0TRNU0yK/sLjUL9yZIPsenPdyW6blUykopMagsoLfj0BIqeFfF/hXx/qPiHTdPtfPn0m7CX6XentErS/MFcF1Ak+4fmGen0oGcz4g+M1vKviWGHw1FrcGhCCV2l1OzEcm8xsrYLlowFk3FnUAbevOagm+Pmj6b4oe1Xw5dyvLpi6hc6rYtBJCcRPIE8wMPMACMu9cqCcdMkXJviz4Y0jxF4q0290URXGnS29q/wDZ0Ud5NeiZkjUeTFmQAPLGhDqB847ZIvaf8TvCms65Hp1npd02qW8awRG50qSCOF2RituZWTbGx2uu3PBBB7ZA9Sx8Nvi1Z+NbOZr+XTtMvX1afS7S0j1CKczvHGJdqMjEO+zcxC5wFJwMHHoOM1w3hzxbpk9l4SMWgSaY2tCSSJEt1MdpIsTMyu6DaGKqwHqAcdKp6h8evCukaV/aV82p2dgZ44Y7ifTJ0WZXDMsseV+ePapJdc4GM4yKQHotLziuJuPirYwWfii4/srWinh92juGNg4WYrjJiP8AGoBBJHQc1Jr3xU0Xw3eXlteLqDG0hMkstvYSyxhhH5piDKpDS+X8+wc4/KgC/rXw/wBF8Q6xBql/azTXsIUJIl5NGAFOV+VXCnk9xXR9uax9A8TQeJdF/tGzhuUGXQ295C1vMrqSCrI4BU5Hf1BrgPDHx/ttY8P2Or6p4b1rR7e/lkjtglq91uWNcySP5a5jVfm+ZgAcZUsMUeQHq+DmlrjfD3xMsfE3jC70Kztb3bb2xuBfzQNHBNtlMTCMsBvww6jj9M9lTtYAooooAKKKKACiiigAooooAKKKKACiiigAooooAKKKKAM3X/8AjwH/AF0X+dZlt/ro/wDeH8609f8A+PAf9dF/nWZbf66P/eH86QGZP/x6L9R/I0UswzaL9R/I0V2o5JPUfB/x7Qf9c1/lWV42tPCzaBYX/inRptWt9PvDPBJBayTtZvtIM3ycoApbLehxznFa0H/HvD/1zX+VYvjrS/DWoaJpEnifXLjRLW11JZrdorw26SzjOwSDlXA+9hhgEBuCARjPY2huVNdu/h9LJ4yF9oU9z5kQbVGjsJW+3JG4V/LK/wCsCMVD7eAetbmmaR4QsfHMK2umNb63p+lIIb145VjW0ztCLIx2tjjI5IyCaxNc03wIZfGQuvFEtg/leXqXl6j5f9npMwZxH/zz81sFsck46VsW/hfw9deMFtptcu9V1K10lbafSLu8E0ctq5275YiMMWK8sepFc5qS+KdQ8JyeKdAOqWf27UlY/ZLyOBpY7XewRTI68JufCrn+Lpg80z4Ynwnoui3Wm+GdNfw5Y2VyYZLC5t3tdjlVYFUk6AqVYY9exzUOseF/BOka/wCHbNpoNAuS5+xaXZSLaxXRVvMG6JQA2x8OvT5vXpVT4e+CfAl74ZfT9Omg8Z6da3skjS6s6ahJFcNguS7qTuOc7jkndnJGKYDpZ/CGizeMNRg8O39zePcra6ulvYTSSXRKhg208PHhj84+Xg811Woa1pF/4Jl1S+Rn0S5svPkjmhbc8LpnaY8btxBA29cnFcpdP4M0b/hMdRv/ABTPJa3k62GqRT3xaK2lKACJFUZjbawGBziut1RtF1zwbPJcXMP9g3Fn5hukkCRiArkSK/YAYIPbApPYDjdO13wcW8I2Ft4f1GKCO5Yae39nyrFY3X7xGSVv4JOJAd2euT97Jh1q7+GVtZ6BbvZWGoWV5rdxDZLZqskS35mc3G45AB80PvBzlgeCRWp4du/Bdmvhi2stbjvbiZp7nTpJ7ovJdyPuEsrf3mJLjnHO4AcVH4s8N+ErTR7DTte1+8gs59QldBc6m+bl5JC7QsSTmMFsAcbFAAKiq0EijJN8PZYvGUWr6Kuj2OY5dXm1y0a2trhWlcI4Z+CpkViMYySDjnNSvrfgPwr448ZX62X2PX7WzS71q9ijYNLHsTbnB+YhdgzjgcZFb15Z+HfEs/iXSYdUljvpjEdRewvGingIACASKfk4XoD3OetYXinTvBNzr+vXOr63PFeW1iVu4jduEsY5Ag3qMYRmxHxz1Bxycy9ii/4I8NeDdSsNH8UaJZCOzTS5LCzWTcI4LZ5N8q7GJAJZBuPOQo5xXJ6f4g+E82i6DNZabDLZ3GrNDo6RwHdd3A2kvHk5dMBfvcYVRjgCuu8HeGdJvYNM1TSNevdV8PjT5rOG0NxvtrgyS7pJpBxvkyCoyMKCwAGTXJp8OPhZa6Bp6R38f2G01J7e2mivNzLKAsL2ikc7QsSIVHIEfJ4Jp9f67i06/wBaHbeBr3wld634nj8NxQi9gvAuqTQRkLJOQTwx4bB3A7eA24dc1yviu6+H2n+J/Ec+t+Hb0XcMdnJqWpvZStC6GZRbtvBwQsi54Hy7GJxg11fgbQfC9lrPibV/Dktu82oXYi1EWhTy0uIgQVwoGG+Yls5JLZNcx4kh8D3Pi7xBHqXjG8tNTkSyS+sjqBjigVZlNvhSuFDSNj/a3sOc0nsJGVp/j/4YaVr1ssGg3GnXV1p9xGT/AGY8cS2aTzCbeg48sSLKxO0j5s9GGe6+HsnhpfDV1b6FpcmiWUEji5sbq1e3mjYqGJkVvm5QqQf7uB2wOG0WD4Sadf21raa/A0NxYTaZFp8t6zwmFp5t+Cwyp8wzLu3DoR/CMd18OoPDz+Hri48P6zLrdvcyt5+qTXZuJpHAC4ZzyNqhQBgcAHvkkh9ThbFPgTd6HLNZXHhiTTIfKiaW3uRtXIIRchs/dQ/gDnityc+AJb7xUmpavHfRQW9uL6G9uP8AR7KHcTEkQAG0bhkYyclcHpUFj8DPCWm2qmz1fVbdolWMXceqneoKCP7x7sq7T6/WtN/AunX9/qtvd67mO3t7aK2t7IrbyaXFG5eI78klty53HHC9KoTMqz1z4bad4jisLawjQXukQ251FIWNjJZMJmijaXOwg+XMeeh3ZIzy6wk+Edq/hm5tbzRYpVml/seQXRDvKXUSbMtlm3bc5ycY7VHH4M+HNv43Olz6it14ku9HWw+yXVyJJXt2aV/MUkZV3LzsWUjdluDjjesPhzo9pfaRqMevapNc2k0lws0moh/tbybUJl4w/CIgxjAAFA2c7InwY1/w5c38p0GXRbzUyk1xKfLje7cFShY46jdlfunnit7SvCHgjWdX8ZWMXh5RdXCLY6yl1C4S8ikjBA+Y4dCvGR6EVnax8HPBvjLQpbG51a+vNPlvHljCaqXSFnDK0MeSQq/M2APmB6HitDS/CGhalqvjJLHxLrFxe3iCx1KOLU3V7NvLGwxlQGicKchlOec0gMrVvEXw3tvGl5p+paRBFrEbNDc3VzYgKsYtCWkeQ9IvJym8/L/DnNU9IuPg5ceJ9CWyfSJ9TaFZNKummMglXznGyOQsQxWUH5T91ivGSKl1vwZ8LfEHje8/tKeC68SXbNpc8Ut25d2NpgxFc4z5I349t3Wp9J+Evguw16xt7fV7yS8tbeOT7AL5US4hM7yozxIqq48xWOQMnbg5Gaa2Bl/xzo/gfw7p0FrqXhx72O4vLjUFtNNspJ5DK5LXE5WPnBL/ADepYDBJqlJpvwzUeLbrUNLg0tBdxR6rPqCvAJpSFeJ1JPOdy7Sv07YqX4keFPBdvoPk+Lteu7Kxubu4bzb3UGJcTEvJBl8/uRgEJjCBFxjAosPAvhTVbnxFLZeJNSaRLyM3Bi1HA02eNAEEfGI8RsF7gqe+c0gM/T4/g7ea3rkENvoqajFaf6YsgCmS1FvGwlXnDJ5OzDrzheDwavaFofw1fWvCbaLpVvcM8Nxd6NqNmHkt1w26XbIDtDksWIPJ5z0qK0+Efgm9l1q0h1W+uIh+6u7D+02MdvKLeOPzdn8L+Vs5PBDEkHNTaH8OfCnhfXfC+m2PiDUobyxjubvT9P8At/yXCO++ZioGHXMnQcAEYwKYM9NnnhttvmypEW4G9wua5X4oXOgWfhZpvEum3Gp6WtxEGjtbeSeSNy2FcBPmGCeWHQE9s1u6z4Y0jxF9n/tXSrHVPs7b4fttsk3ltxyu4HB4HSuY+LegeFNb8PW7eM7s22iWd0k5R7gxRyyYKorgcuMtkL6gHtSA5u8m+DenarrT3V54et76CzWx1ES3QXyoAEVY3BbCgbo8dCNwI65qxpOg/DO78QaQ+n6JZ3c1xp8slpqMcBlt3hiYq6M5JBZTK52tz8zHrmuO0z4LeH9c0zxFpGkfEPULszRWt1bZmEw06ExRLFMMn52aOAASk9M9673S/A3h2PxJZNZ+JdTk1XS4HZoV1HJmFwWdpZFx85fbnd0+QYxinoIx10n4O2nh/RdSkj0ex0u5vWudOnnnMYkuQRGZFJblvkVcnoMDjOKueJNQ+EklhrKaxPob20usCPUgzZP9oNF5eJNvIdo0Kc9VUjpmpI/AXhfQk0Gwk8T6sLm5u7gWU8mqsZrsyESzW/mAfMjFN5XrkHBFS23wP8MaGmsvbXuqae+qzRSyTx6gY3ikR3ZDG3UHMjjJySGwSeKNBhNofwzgn8QrNaaZD9gtoP7SkmYqsEbBTFyT8pIiQgrg/KvORVPw5pHwgHiXRYdFi8PtrqQxXOnLbuDOsYEpRo+cgYkn/N/Q1uX/AMNdHudV1W8uNb1fzbq2hieF9SOy2ELB4ZEB5VlfLBiTks2c5pNO+GGiabqdndRarqT3MMsNxtkv9wmkXziGcfxFzPKzep57UIXQzvFVl8P/AAXJ4U0a+0GIFrpl0q2tbRnETtIrMcL/AAl3ViOeecYBIl8L+Kfhn4b0jUdU0bU9K0/T3vfs13eCUqn2gMwEZZumDuwOg59a3vGPgnTPFd7psup315FFbyArZR3fl29ywdXUOnRiCgwRg4yM4JrB8QfBTwz4x03UNNv7zU7m1nu5LloRqDMtuzhw6IpyEB8xz0yCeCMDAM5Tx34d+Cl4uq2+q3ml6ZeWNx9s1CWyufLuonkmidjIVy2HkEJOevGK0bLw58JdK8YSXY1HT11S+0qNobO4vgqxWaRON8SEjaCjSEt1+8fWtfTPDnhPUNR8X6dbeJr27umEMGp2raj81k4QeUyjAMbYQEHvtJ55pL/4ReDp9Q/tW7nmnu1sDDcTzXIkluIxEy+a7kFy4Rz8ykdu2BR0ATwJ4U+G3i3TNPu/Dml2s9joF9LHYyRbwlvOCC5j59xz9R61tXfwZ8EXtpcWs/hqwkt7iYzyRlDhmIII68KQxG0fLyeKo+DPDPhywtdIvdK8SalqMd/eSatbzSao8gv3eDY28DAkjC4YKRtDAEAECu7F/bDI8+Lh/LP7wff/ALv19qQHN6l8K/CerLqYvNCtZ/7TijhvCwOZ0TG1WIPT5Vz64Gc4ps/wm8IXQ/faDbS/6H9g+bccwbdu088/KdueuOM4rfk17TYoruRr62CWmftB81T5RHZueD7GrDXsKNsaRFfZv2s4B29M49M96AORfwRf6bdvH4e1Kw0bR55WmurFtNM7TyO2ZW8zzVwWGB0460y1+CXga0sPscPhu0S22unlfMQFZPLZRzwCny46YrshewtbG4EiNAFLmRWyuB1ORWH4Z+IfhrxnayXGia1Z6jAjrGzwyjAZgCo59QQR65oANH+Hnhvw/r9zrWnaPbWeq3KGKW6iUhmQsGK+gBYZIHfnrXR1Qj1ywl1d9LS7hbUY4hO9qHBkWMnAYjsM8VfoAKKKKYBRRRQAUUUUAFFFFABRRRQAUUUUAFFFFABRRRQBm6//AMeA/wCui/zrMtv9dH/vD+dWvFs8sNhbpDsEs1zHErSAlVyepAIJrjYvFF3aeJ9P02ZbaVZ5xEzxRspXIznlj6UAa0v/AB6r9R/I0UTf8eq/UfyNFdiOSW5LEMQQ/wC4v8qoeKvCtz4s0OxtYvET6Dare7rmMRI6XydBA+4ghScZCkbsYOQSDfj/ANTF/uL/ACrE8feCtT8deHdP0/T49GktxfeZeDVoTI3kgHIgYBvLkPTfgkAttwSCMZ7G0Nx+qfDj7S/iQQeJvshu4JoIVa3jf+z0uHEk5IJ+cuygqWxt7ZrRXwPe3PiGC5vvERubddK/s+4soLcW7y7sbpRKjB4ySoxt6Y4Peua1z4P6jqD+MGii0Kf+1YJYrcXcTkzmWVZA90QDuMO3bHjOB6VtweDNefxkmrP/AGVpwn0ZdPvL3TyxvRKCGDIZEKsqnO3eD948djgaj734aWUWpaT9j1e5sraJl8y0uZmupLzypfPjHmzMzjbINxwTkccCofC/wxhj0R7bWvEF94mu2vHupdUguZLGWSTAXbJ9nkUHaFwF4VQAAoxUetfC/Ub7XtCvDqker/YmUyX2rxIbyLZMJR5BiREXfjy34HyetQeAPhhreh6BcQX2rW+g6pc3zXk7+FIIoreUFVVVEc0L7QAoHHzHGSxJNAGuPDE1ndeLbq88TqtpqwEYVYY4TYnZsGJM8ttI+935rd1jw/aax4Un0hH+y2kluIo5IsERAAbGHYgYB9DiuRPwzur+58aw32n+H20/WJhc2Y+zmZlnEewTTI67WfgNkdxium1nwfHdeA5/DdgUtYRZCzgDDKKqqAqsB/CQACPQmh7AjkbP4UWY1/w3q8uvJeXtq8tyzm3i3Xkju0rNGQf3a5kOQuflxyOtO1n4UW0nhm20KTXINPs31aa+crYW8RlaW4acIgAAWQM3EgyzHJYMSTWZpvwU1C28SeE9VkfTIv7KkmlkhtfMSO33yySeVAmACn7zaN23AGcHOBZ134T61rOk6PEb2zOpafrNzqEV5NPczGBJJnZGTzGfcyowHlt8nZdigCmgET4IaVKvje0s9Z3xeIJzPcW00EV2kErS+c7PHJuWQlshdyjauAM4BrpF8FQW/wAQr7xINXENxJalWtY4o0IBCqHkYcyKuz5dw4OecYA5xvhRrlvB44WwvrOy/tyYTwJDPcxYlMxkaV5I2WVCQdu1HxxngHbUniv4SXniPxfrWrBdNigvNKmsAql0luS4Tb5xwQApT7wDZXAK4Bytth77nT6T4avLO50+C31ZJfCsOltbNZiMGS7ndgfPaUcgbQ3CkZMhJ6CuAh/Z50C00nSBa6/NbW+l6tPe2M6SllgSbahhRmkPzKECq5JIOeOTXS+CvCninwhpFl4eB0y70yLT7mSa6myC17LMWSFEQKqwIrMDhRxsChcGuPX4CeIJtA8MxvqGk6dqem6pNqF1BpsBj0+V5FVRIsOzAMYX5YyMHJ3MTlidf67iR6d4P0ifTNT8Qzya9DrCXt554git44/shChNhKklvlRfvc5BPeuf8T+BJPE2ta+s/iuBbbUorSB9Le0ifylhl8wA5bLb97qc9nGORXS+F/A9h4X1jXL6zs7KzOpSxnZZ26xAIinG7AG5i7SMWP8Ae9q4jxn8ItR8UeIPE90th4dW21WGwhS4ZJEvP3E4kZnkVeCQSFIPBRD24TAi0z4NaDDfwxz+JDqkbaTc6REtw0Zuis00ru6yA8n94VwVOdgPXOe38IeG203T9Qln1n+3r7UpN89+YY0R9qCNQET5cBVAPqc+wHl+mfs1SJqEL39xpkvk6Tc2cd7a23kyLcy3E8om8oDblRMCCGBDBiPvcei/D/wVdeFNH1KG4h0yzlvZTKLDRo2hs4P3aoNg6gtt3MQByfbJJB1uec6P+yfpug6YbOz1aEKwXfHJo1u0MjCPy9zRYCk4LEZ+6WJHU56a5+D51S41qGX+zbGG4t7WCGSGAXEtz5L71kvFdQJCcBSpyCM81yWjfAzx3pGkNay+K/7Q8wIXin1fUMM4TbkS7y6gOWcAEbjgN0GOnuPh9r19eeIfspubGS4trSB7y71KQLqUkT7nYCJy0CMuVO3afmPFUJ/1+AyD4H6WupmG516SZjoy6bFYR4hELK0x89Ilbbx9okCqVIVcBSMcyWPwCtLXUfDt3Lc6dcDSLme5NudEgWJmk2DESjiAAID8v8RLHk1mRfArWZvEg1i61e3ju4tEjsra7t8tcR3SG42s0roZWRVuNoPmAnYCwY9Lun/CrxNDf+GpLjUU+w2NzPNc2kOtX/CMUKIrFszBWUv+97ttHyjFFxsp69+zLZa14Tm8PQ6z/ZtgdRfUII7TTYIhEWDAZ2BS8ilsiRj2HFdhZ+DNXj1PxXd2/jFhPqkCwRNDYwltPlRNqOM7g5AOdrjBrhdW+CXjMeD5dE0LxLFpMkeqPeW90t9eNK6YbYZHd3IwWGYlAQ7evNdnpfhTxZo+t+NNStE8O282rRJJZMEmI+0pHsVrgALuU8Z2ndgAZoAxfE/wN0Txb4u1TVrzxHfLe6javp81rDOiLta28ogKOQf+Wnrn2rN0L9mnTtE1TRJI9Xi2aUgAtotPQMoNybjdG7s7wlm4JU4IBAx2d4p+AWr69471TxHaeIbfSjdxOY47a0AkguGszALhHPIkDH73XYcVU8P/AAO8XaXr+hX83iBZGsoFgmuZNSuprnaLlpsbsIsy7GMYWVSFDNjPcWw36nZ+MPh9ea7Ybbrxlc2F001zEl8sUcLrbTuCLdChQgqEQK4O47fm3ZNULz4Rza62upP4nTUILu6gnit59Pinjt3hUIqSqSfOGwDIfHzYbgil+I/w58R+P9KEU8mgyXUc13FEtxamSGO3kYeVJskWRTOqKAcrtO98bciqk3wx8UsfE6Qz6RbW+o3lvdRraTT2r3QjjWNhO8QVlLBQxMZzkBTlaQupSh/Zvshc6rIniBj9qthaeZHYwC4ixbJb7DMPnMWxcmLIGW4xgVreEPhDc+C38J2Np4r3WuhC5ZLFrKPMySuSwBLFlVQwVcZwAM5rn7P4J+MrK/124i8R28E2oW2wXcdxdb3f7JHAQ8e7y8lkL+dgyZC9ea1/CPw08YaFe+CptRvNI1aXRUuoLm/uZJpLySGVyVRZCuW2qEHzY3Fc4FMGej6/4XsfEgtvtrXg+ztvj+yX09tzx97ynXcOOjZFZ3jzw7/wkOm2yR6v/Yd3BPvt7wAHazI8bLglTko7gFSGBwQeK09c0W71f7N9n1vUNG8ptzfYBAfNHHyt5sT8f7uDz1rl/jF4A1D4leGrbRLS40+0t3u45ruW/tRckRplh5aMMb94Tk4wM45qQMtvg1eTR3VrP4oubvTptKt9MWC6tEmf9y29ZJJGJMu5yxZW4ZW2n1rJs/2fbO18SWt4dfRbiK1WNYrfTreOaHbJNIGt2wWgTfOcqvykKF9c8Zf/AAx+K1zpviuaaV5NUlaFbV7LX7mIXhCW4fYvmBLePeksnG18sQODz6Jovw68T6Vr3h2+d9HuUsbS7tp5Jp7iS5VZnDLDHMwLNGmxAC5ycnpgVXzFsUfCXwGuvB2h6dpmkeLWitLPV21bYNPR1ZtgQxgFjtX7xPOdzGtz4l/CKb4oeGtS0TVPEVz9lur37VCotY8W8flBBCAu0uA26QMxzuIzkDFYdp8K/F58NaHptzqNnGdPuZyY7TUr+NPLeQPHJ5isskkkY3qFdirBsk5rPb4KeMrqHxGuoeI4tSF1qcOp2EMl/eQxxujyb1JjZWjRkdfkUkAoOucgQy3qH7OFlqut6zqVzrbyajqOmppsky2iB2iHkgiT5vnVvIAwNpwzc9CGeGf2abbw54p8Ja6fEM95ceG7VLK3jlsYtskQEo+c8kuBKAj5zGAwXAkfdtah4A8W3WreJ5IbzTrez1S0tI4zDd3aStJCfmB5PlJIpZCY23AAHliTVbw98MPFWkeJtL1SbWEmjthDHJA2p3siLCBP5kYR2Kuf3kIDuCxEWSc0IXQ0PEXwuTXz4efXtfi1K9sZGQz6jp1s/wBoDSiQCNCu2ORQiqHUZwOmeat/DL4R2nw11LxJqEF19rvNduVubl1txCCQXIJAJyxMjZPA6YA5zF8UPhvfeOtb8O3EC6asGnTCZp7sO0sZEsb/ACJgxuCEIwwBB2kMOa5PXvgt4vl8K6po+g+Io9IabU5L23uxfXjT7W8xl3yO77drOnyINrBOSN3AMi8efs8ax4ln1G+tfFf2+71G+S4mstctFnsRGlxDLGqxYODGsO0f3g7Zxk1N4a/Z6uvD/jy61yPUtNt4UggW0lttNRbnzkikQsxwNkQMnESHaVUDgCr+pfCPX9dk8WnUNRUjU4ofsXk6vfqkToIywMYdVjV3jyTHg4Y++Ybv4Q+MbjxHbalF4tnsohpP2I2ltfTrBBJ5Tp8qMGaUbmVt7OHyuc8AUbBe5saR8J9Qs18IkeKY7qbw5NMfPOlw+ZOrgq0RYHMfyswO3qdpP3a5zXf2XLHWvD0+kjWxZo9yk4nttMgjdtiOsbSsuDLMu8kSsevJU5NdT8MvAvibwJZG1ebSfs11q9xfXcayXNw6wPEAqRySNuLiVVJZ8grkAA4x6VjjmkB5ZqvwOivbfxjFbala2Y8SqpuCNHtnIk+XfIxIzISVyu4/KSTycYh8R/AZfFNxeXGoazDNcXlgbW4mfS4WkdzAYSdx58or83k/d3fNXrOBRimB53oenan8PIH0LS9Au9U0+a4kniu7BbO1t7MSOT5axGVThOvC857muVtP2aY4/DWnaPca5bXcWnfaGs5JdFgYwySxlWlGScPuJfIxzjAGK9t2D0pcUgPOvBXwgj8GeONQ8Qx6oLj7ZBJA0H2KKN23TebvklX5pGBLAFuxx2yfRqTFLTAKKKKACiiigAooooAKKKKACiiigAooooAKKKKACiiigDE8W20lxp0LRSLHLFcRyoXXcuQe4BHH41x8Hgy8fxLYapeXceIZhKI47dl3cYHJY+td9qsD3Nsqxglg6tx7GuT8L/DnSfB2oald6Tpps5tSuDc3TeazhmJycBmO0ZydowMk0APk5tl+o/kaKVv+PZfw/kaK6zlZIn+qi/3F/lW/oI/0H/gbVgL/AKuP/cX+VVP+EhsINSGmjU4Y79uloJwJCSMj5c5yRzUyXMrIuLSO7xmjFcg2o7LtbVroi6ZDIsJkO8oOC2M5wCRzTpruS3ikllneOONSzu7kBQOpJ7Cs/ZsvnOtxRjFchcaibW3knmuXjgjQyNIXOAoGc/lXmV/8adTNyw0/St9tn5Xubhw7e+B0+lVGjKWxEqsYbnvh5oxXz1/wufxD/wBAq3/8CJKP+F0eIP8AoFW//gRJV/VpkfWIH0LijbXz1/wujxB/0Crf/wACJKP+F0eIP+gVb/8AgRJR9WmH1iB9C44oK5NeH+H/AIxzXd9Da6vatYCdxHHcRTs0YY9A2eRn1rq/FXjBfCuni4lM1xNI2yG3SQgucZPPYDuah0ZJ2LVWLXMj0XFG2vns/GjX2Py6TbgZ4BuZCf5Un/C6PEH/AECrf/wIkqvq0zP6xA+hcUtfPP8AwujxB/0Crf8A8CJKP+F0eIP+gVb/APgRJT+rTH9YgfQuBRivnr/hdHiD/oFW/wD4ESUH40eIB/zCrf8A8CJKPq0w+sQPoXbRtr56/wCF0eIP+gVb/wDgTJXW+DPiSvimZ7OZJbDUY08wwmUsrr/eU96mVCUVdlRrRk7I9YxRiuU+0zf89pP++zR9pm/57Sf99ms+RmnMdXjFLXJ/aZv+e0n/AH2aPtM3/PaT/vs0ezYcx1e2jFcp9pm/57Sf99mj7TN/z2k/77NHs2HMdXgUYrlPtM3/AD2k/wC+zR9pm/57Sf8AfZo9mHMdXijGK5T7TN/z2k/77NH2mb/ntJ/32aPZsOY6ykPNcp9pm/57Sf8AfZo+0zf89pP++zRyMOY6vaKNtcp9pm/57Sf99mj7TN/z2k/77NHIw5jq8UYrlPtM3/PaT/vs0faZv+e0n/fZo9mw5zq8CjGK5T7TN/z2k/77NH2mb/ntJ/32aPZsOc6s80YrlPtM3/PaT/vs0faZv+e0n/fZo9mw5jq8UbRXKfaZv+e0n/fZo+0zf89pP++zR7NhzHV0tcn9pm/57Sf99mj7TN/z2k/77NHIw5zrKK5P7TN/z2k/77NH2mb/AJ7Sf99mjkYc51lFcn9pm/57Sf8AfZo+0zf89pP++zRyMOc6yiuT+0zf89pP++zR9pm/57Sf99mjkYc51lFcn9pm/wCe0n/fZo+0zf8APaT/AL7NHIw5zrKK5P7TN/z2k/77NH2mb/ntJ/32aORhznWUVyf2mb/ntJ/32aPtM3/PaT/vs0cjDnOsork/tM3/AD2k/wC+zR9pm/57Sf8AfZo5GHOdZRXJ/aZv+e0n/fZo+0zf89pP++zRyMOc6yiuT+0zf89pP++zR9pm/wCe0n/fZo5GHOdZRXJ/aZv+e0n/AH2aPtM3/PaT/vs0cjDnOsork/tM3/PaT/vs0faZv+e0n/fZo5GHOdZWcLuae92eVJHCqtkshG4/iPr371ifaZv+e0n/AH2aQzyngyyEem80ezYc5Xb/AI9l/D+Rop0oHlY6DI/rRXQjFjwMRx/7i/yFedeI9C1eTxDfXVpDqMkcl1FOiReT5HywCMSjLhvMRvmHY7cEd69FAOyP/cX+VGKIu2oNJ6HjOneDtfhuba5uLXVvtMcLRNKs8bMvEpTH71QVDuj4I6g9acPDXiltPtLd7PUpGWC4hmMtxG6gSKwAUBxnk5yenIw3FeyYoxV877EezRw8Gl3dp8O9as3t7qIjzTBBcOHkEWFIXIZs9G796888S2E2t+Gb6HTGAuLiHETq20MMgld3bIyue2a97x7VxepfCHQNRupLgC8sjIdzR2ly0aZPU4pxna9xSp3tY8F1Tw/rtvKLvwzobaHD5bRm182MuEMkZYogYojEKeAccE5y1Je2nxBlvI0i3xqbNUlmQwBPM8tcsinO1t+7g7h74IFe4/8AClNC/wCfvVv/AANaj/hSehf8/erf+BrVftER7JnlWp2Ws2mpeJBptjcSSXcNubO9zEUBRNrg7myHPOPlxkjPFc/c6p4h0/XdDsbma9R7m5iEMGIC7QG4ff8AacDlhEE5j4BBJx391/4UpoX/AD96t/4GtQPgroYBAvNXAPUfbmo9qg9kzz3xeVTToYFH+kT3MSxIPvE7wTj8BXonxJXbdaNJIMRlZIsnoHOwgfiFNXdB+FWg+H9SS/iiuLq7QfJJeTGUp9M10eraRa65YS2d9ALi3k+8revYj0NZufvXLULRcT548Z+H21HV7Cd9BbXLaOzuYfLUxjy5XMexvnYbfut8y5IrHfTvHVkjJBI91cW0K4MjxC3uNqRBVUkbw5bzSzNxjGK9tPwU0EnIutVUegvWwKP+FKaF/wA/erf+BrVftFYj2bPCpdC8fXenzx3dwZZGga3aCIwrHKPnjZzxkFlCycEYL47Yq0bHxpDbXUax3RKqqDZJAAMSDaYO+BFw+/BLdDXtf/ClNC/5+9W/8DWo/wCFKaF/z96t/wCBrU/aIfs2eMaDpXiu413w5PrkU5+zFZJzG8ItlBtmVsqPmMnmseny4xTIrLxTb+F9JsrKwvbO6tEkjmIaAmST/lkxLM2Yc53dG6YFe1f8KU0L/n71b/wNaj/hSehf8/erf+BrUvaISpM8e8H6rqWoeNdVs7qaeeK2hk85dqfZ45fPIjEWBvH7sch+Tyfeu68JusvxT02OHkwWcxm2/wAO7GAfyrqD8FtDYAG81cgdP9Nbit/wt4H0nwdHKum27LJKf3k0rbpH+ppSqJqyRUabTuzeooxRisTcKKMUYoAKKMUYoAKKMUYoAKKMUYoAKKMUYoAKKMUYoAKKMUYoAKKMUYoAKKMUYoAKKMUYoAKKMUYoAKKMUYoAKKMUYoAKKMUYoAKKMUYoAKKMUYoAKKMUYoAKKMUYoAKKMUYoAKKMUYoAKKMUYoAKKMUYoAKKMUYoAbIMx/iP60Urj5D9RRQI1oP+PaD/AK5J/wCgin0UUlsMKKKKYBRRRQAUUUUAFFFFABRRRQAUUUUAFFFFABRRRQAUUUUAFFFFABRRRQAUUUUAFFFFABRRRQAUUUUAFFFFABRRRQAUUUUAFFFFABRRRQAUUUUAFFFFABRRRQAUUUUAFFFFABRRRQAUUUUAFFFFABRRRQAUUUUAFFFFABRRRQAUUUUAI/3D9RRRRSA//9k=;" parent="1" vertex="1">
                    <mxGeometry x="127.3" y="540" width="235.41" height="110" as="geometry"/>
                </mxCell>
                <mxCell id="34" value="&lt;font style=&quot;font-size: 12px&quot;&gt;Console Terminal&lt;/font&gt;" style="image;html=1;labelBackgroundColor=#ffffff;image=img/lib/clip_art/computers/Workstation_128x128.png;rounded=0;shadow=0;glass=0;comic=0;fillColor=#C8D7E3;fontSize=10;" parent="1" vertex="1">
                    <mxGeometry x="410" y="540" width="80" height="80" as="geometry"/>
                </mxCell>
                <mxCell id="35" value="&lt;p style=&quot;margin: 0px ; margin-top: 6px ; text-align: center&quot;&gt;&lt;b&gt;AlarmHandler&lt;/b&gt;&lt;/p&gt;&lt;hr&gt;&lt;p style=&quot;margin: 0px ; margin-left: 8px&quot;&gt;&lt;br&gt;&lt;/p&gt;" style="align=left;overflow=fill;html=1;fillColor=#a0522d;strokeColor=#6D1F00;fontColor=#ffffff;" parent="1" vertex="1">
                    <mxGeometry x="345" y="325" width="150" height="50" as="geometry"/>
                </mxCell>
                <mxCell id="36" value="" style="shape=component;jettyWidth=8;jettyHeight=4;" parent="35" vertex="1">
                    <mxGeometry x="1" width="20" height="20" relative="1" as="geometry">
                        <mxPoint x="-25" y="4" as="offset"/>
                    </mxGeometry>
                </mxCell>
            </root>
        </mxGraphModel>
    </diagram>
</mxfile>